<!-- icon666.com - MILLIONS vector ICONS FREE --><svg xmlns="http://www.w3.org/2000/svg" version="1.1" viewBox="-126 1 584 584.937"><g id="surface1"><path d="M 322.230469 29.25 L 322.230469 555.75 C 322.199219 566.507812 313.488281 575.21875 302.730469 575.25 L 29.730469 575.25 C 18.976562 575.21875 10.265625 566.507812 10.230469 555.75 L 10.230469 29.25 C 10.265625 18.492188 18.976562 9.78125 29.730469 9.75 L 78.484375 9.75 L 91.058594 39 L 241.40625 39 L 253.984375 9.75 L 302.734375 9.75 C 313.488281 9.78125 322.199219 18.492188 322.230469 29.25 Z M 322.230469 29.25 " style=" stroke:none;fill-rule:nonzero;fill:rgb(91.764706%,20.392157%,54.509804%);fill-opacity:1;"></path><path d="M 322.230469 224.25 L 322.230469 555.75 C 322.199219 566.507812 313.488281 575.21875 302.730469 575.25 L 29.730469 575.25 C 18.976562 575.21875 10.265625 566.507812 10.230469 555.75 L 10.230469 477.75 " style=" stroke:none;fill-rule:nonzero;fill:rgb(0%,42.745098%,94.117647%);fill-opacity:1;"></path><path d="M 273.484375 68.25 L 292.984375 87.75 L 273.484375 107.25 L 292.984375 87.75 Z M 58.984375 68.25 L 39.480469 87.75 L 58.984375 107.25 L 39.480469 87.75 Z M 58.984375 68.25 " style=" stroke:none;fill-rule:nonzero;fill:rgb(40%,65.490196%,96.470588%);fill-opacity:1;"></path><path d="M 241.445312 39 L 253.984375 9.75 L 78.484375 9.75 L 91.019531 39 Z M 241.445312 39 " style=" stroke:none;fill-rule:nonzero;fill:rgb(0%,0%,0%);fill-opacity:1;"></path><path d="M 88.230469 170.625 C 88.230469 184.085938 77.320312 195 63.855469 195 C 50.394531 195 39.480469 184.085938 39.480469 170.625 C 39.480469 157.164062 50.394531 146.25 63.855469 146.25 C 77.320312 146.25 88.230469 157.164062 88.230469 170.625 Z M 88.230469 170.625 " style=" stroke:none;fill-rule:nonzero;fill:rgb(100%,96.862745%,83.921569%);fill-opacity:1;"></path><path d="M 88.230469 258.375 C 88.230469 271.835938 77.320312 282.75 63.855469 282.75 C 50.394531 282.75 39.480469 271.835938 39.480469 258.375 C 39.480469 244.914062 50.394531 234 63.855469 234 C 77.320312 234 88.230469 244.914062 88.230469 258.375 Z M 88.230469 258.375 " style=" stroke:none;fill-rule:nonzero;fill:rgb(100%,92.156863%,60%);fill-opacity:1;"></path><path d="M 88.230469 346.125 C 88.230469 359.585938 77.320312 370.5 63.855469 370.5 C 50.394531 370.5 39.480469 359.585938 39.480469 346.125 C 39.480469 332.664062 50.394531 321.75 63.855469 321.75 C 77.320312 321.75 88.230469 332.664062 88.230469 346.125 Z M 88.230469 346.125 " style=" stroke:none;fill-rule:nonzero;fill:rgb(100%,96.862745%,83.921569%);fill-opacity:1;"></path><path d="M 88.230469 433.875 C 88.230469 447.335938 77.320312 458.25 63.855469 458.25 C 50.394531 458.25 39.480469 447.335938 39.480469 433.875 C 39.480469 420.414062 50.394531 409.5 63.855469 409.5 C 77.320312 409.5 88.230469 420.414062 88.230469 433.875 Z M 88.230469 433.875 " style=" stroke:none;fill-rule:nonzero;fill:rgb(100%,92.156863%,60%);fill-opacity:1;"></path><path d="M 88.230469 521.625 C 88.230469 535.085938 77.320312 546 63.855469 546 C 50.394531 546 39.480469 535.085938 39.480469 521.625 C 39.480469 508.164062 50.394531 497.25 63.855469 497.25 C 77.320312 497.25 88.230469 508.164062 88.230469 521.625 Z M 88.230469 521.625 " style=" stroke:none;fill-rule:nonzero;fill:rgb(100%,96.862745%,83.921569%);fill-opacity:1;"></path><path d="M 302.730469 0 L 29.730469 0 C 13.578125 0 0.480469 13.09375 0.480469 29.25 L 0.480469 555.75 C 0.480469 571.90625 13.578125 585 29.730469 585 L 302.730469 585 C 318.886719 585 331.980469 571.90625 331.980469 555.75 L 331.980469 29.25 C 331.980469 13.09375 318.886719 0 302.730469 0 Z M 239.191406 19.5 L 235.019531 29.25 L 97.445312 29.25 L 93.273438 19.5 Z M 312.480469 555.75 C 312.480469 561.132812 308.117188 565.5 302.730469 565.5 L 29.730469 565.5 C 24.347656 565.5 19.980469 561.132812 19.980469 555.75 L 19.980469 29.25 C 19.980469 23.867188 24.347656 19.5 29.730469 19.5 L 72.058594 19.5 L 82.058594 42.839844 C 83.597656 46.425781 87.121094 48.75 91.019531 48.75 L 241.441406 48.75 C 245.34375 48.75 248.867188 46.425781 250.402344 42.839844 L 260.40625 19.5 L 302.730469 19.5 C 308.117188 19.5 312.480469 23.867188 312.480469 29.25 Z M 312.480469 555.75 " style=" stroke:none;fill-rule:nonzero;fill:rgb(0%,0%,0%);fill-opacity:1;"></path><path d="M 63.855469 136.5 C 45.011719 136.5 29.730469 151.777344 29.730469 170.625 C 29.730469 189.46875 45.011719 204.75 63.855469 204.75 C 82.703125 204.75 97.980469 189.46875 97.980469 170.625 C 97.980469 151.777344 82.703125 136.5 63.855469 136.5 Z M 63.855469 185.25 C 55.78125 185.25 49.230469 178.703125 49.230469 170.625 C 49.230469 162.546875 55.78125 156 63.855469 156 C 71.933594 156 78.480469 162.546875 78.480469 170.625 C 78.480469 178.703125 71.933594 185.25 63.855469 185.25 Z M 63.855469 185.25 " style=" stroke:none;fill-rule:nonzero;fill:rgb(0%,0%,0%);fill-opacity:1;"></path><path d="M 117.484375 146.25 L 175.984375 146.25 L 175.984375 165.75 L 117.484375 165.75 Z M 117.484375 146.25 " style=" stroke:none;fill-rule:nonzero;fill:rgb(0%,0%,0%);fill-opacity:1;"></path><path d="M 117.484375 175.5 L 136.984375 175.5 L 136.984375 195 L 117.484375 195 Z M 117.484375 175.5 " style=" stroke:none;fill-rule:nonzero;fill:rgb(0%,0%,0%);fill-opacity:1;"></path><path d="M 146.730469 175.5 L 224.730469 175.5 L 224.730469 195 L 146.730469 195 Z M 146.730469 175.5 " style=" stroke:none;fill-rule:nonzero;fill:rgb(0%,0%,0%);fill-opacity:1;"></path><path d="M 185.730469 146.25 L 302.730469 146.25 L 302.730469 165.75 L 185.730469 165.75 Z M 185.730469 146.25 " style=" stroke:none;fill-rule:nonzero;fill:rgb(0%,0%,0%);fill-opacity:1;"></path><path d="M 52.089844 114.144531 L 65.875 100.355469 L 53.269531 87.75 L 65.875 75.144531 L 52.089844 61.355469 L 32.589844 80.855469 C 28.78125 84.664062 28.78125 90.835938 32.589844 94.644531 Z M 52.089844 114.144531 " style=" stroke:none;fill-rule:nonzero;fill:rgb(0%,0%,0%);fill-opacity:1;"></path><path d="M 280.375 61.355469 L 266.589844 75.144531 L 279.195312 87.75 L 266.589844 100.355469 L 280.375 114.140625 L 299.875 94.640625 C 303.683594 90.835938 303.683594 84.664062 299.875 80.855469 Z M 280.375 61.355469 " style=" stroke:none;fill-rule:nonzero;fill:rgb(0%,0%,0%);fill-opacity:1;"></path><path d="M 234.480469 175.5 L 302.734375 175.5 L 302.734375 195 L 234.480469 195 Z M 234.480469 175.5 " style=" stroke:none;fill-rule:nonzero;fill:rgb(0%,0%,0%);fill-opacity:1;"></path><path d="M 63.855469 224.25 C 45.011719 224.25 29.730469 239.527344 29.730469 258.375 C 29.730469 277.222656 45.011719 292.5 63.855469 292.5 C 82.703125 292.5 97.980469 277.222656 97.980469 258.375 C 97.980469 239.527344 82.703125 224.25 63.855469 224.25 Z M 63.855469 273 C 55.78125 273 49.230469 266.453125 49.230469 258.375 C 49.230469 250.296875 55.78125 243.75 63.855469 243.75 C 71.933594 243.75 78.480469 250.296875 78.480469 258.375 C 78.484375 266.453125 71.933594 273 63.855469 273 Z M 63.855469 273 " style=" stroke:none;fill-rule:nonzero;fill:rgb(0%,0%,0%);fill-opacity:1;"></path><path d="M 117.484375 234 L 175.984375 234 L 175.984375 253.5 L 117.484375 253.5 Z M 117.484375 234 " style=" stroke:none;fill-rule:nonzero;fill:rgb(0%,0%,0%);fill-opacity:1;"></path><path d="M 117.484375 263.25 L 136.984375 263.25 L 136.984375 282.75 L 117.484375 282.75 Z M 117.484375 263.25 " style=" stroke:none;fill-rule:nonzero;fill:rgb(0%,0%,0%);fill-opacity:1;"></path><path d="M 146.730469 263.25 L 224.730469 263.25 L 224.730469 282.75 L 146.730469 282.75 Z M 146.730469 263.25 " style=" stroke:none;fill-rule:nonzero;fill:rgb(0%,0%,0%);fill-opacity:1;"></path><path d="M 185.730469 234 L 302.730469 234 L 302.730469 253.5 L 185.730469 253.5 Z M 185.730469 234 " style=" stroke:none;fill-rule:nonzero;fill:rgb(0%,0%,0%);fill-opacity:1;"></path><path d="M 234.480469 263.25 L 302.734375 263.25 L 302.734375 282.75 L 234.480469 282.75 Z M 234.480469 263.25 " style=" stroke:none;fill-rule:nonzero;fill:rgb(0%,0%,0%);fill-opacity:1;"></path><path d="M 63.855469 312 C 45.011719 312 29.730469 327.277344 29.730469 346.125 C 29.730469 364.96875 45.011719 380.25 63.855469 380.25 C 82.703125 380.25 97.980469 364.96875 97.980469 346.125 C 97.980469 327.277344 82.703125 312 63.855469 312 Z M 63.855469 360.75 C 55.78125 360.75 49.230469 354.203125 49.230469 346.125 C 49.230469 338.046875 55.78125 331.5 63.855469 331.5 C 71.933594 331.5 78.480469 338.046875 78.480469 346.125 C 78.480469 354.203125 71.933594 360.75 63.855469 360.75 Z M 63.855469 360.75 " style=" stroke:none;fill-rule:nonzero;fill:rgb(0%,0%,0%);fill-opacity:1;"></path><path d="M 117.484375 321.75 L 175.984375 321.75 L 175.984375 341.25 L 117.484375 341.25 Z M 117.484375 321.75 " style=" stroke:none;fill-rule:nonzero;fill:rgb(0%,0%,0%);fill-opacity:1;"></path><path d="M 117.484375 351 L 136.984375 351 L 136.984375 370.5 L 117.484375 370.5 Z M 117.484375 351 " style=" stroke:none;fill-rule:nonzero;fill:rgb(0%,0%,0%);fill-opacity:1;"></path><path d="M 146.730469 351 L 224.730469 351 L 224.730469 370.5 L 146.730469 370.5 Z M 146.730469 351 " style=" stroke:none;fill-rule:nonzero;fill:rgb(0%,0%,0%);fill-opacity:1;"></path><path d="M 185.730469 321.75 L 302.730469 321.75 L 302.730469 341.25 L 185.730469 341.25 Z M 185.730469 321.75 " style=" stroke:none;fill-rule:nonzero;fill:rgb(0%,0%,0%);fill-opacity:1;"></path><path d="M 234.480469 351 L 302.734375 351 L 302.734375 370.5 L 234.480469 370.5 Z M 234.480469 351 " style=" stroke:none;fill-rule:nonzero;fill:rgb(0%,0%,0%);fill-opacity:1;"></path><path d="M 63.855469 399.75 C 45.011719 399.75 29.730469 415.027344 29.730469 433.875 C 29.730469 452.722656 45.011719 468 63.855469 468 C 82.703125 468 97.980469 452.722656 97.980469 433.875 C 97.980469 415.027344 82.703125 399.75 63.855469 399.75 Z M 63.855469 448.5 C 55.78125 448.5 49.230469 441.953125 49.230469 433.875 C 49.230469 425.796875 55.78125 419.25 63.855469 419.25 C 71.933594 419.25 78.480469 425.796875 78.480469 433.875 C 78.484375 441.953125 71.933594 448.5 63.855469 448.5 Z M 63.855469 448.5 " style=" stroke:none;fill-rule:nonzero;fill:rgb(0%,0%,0%);fill-opacity:1;"></path><path d="M 117.484375 409.5 L 175.984375 409.5 L 175.984375 429 L 117.484375 429 Z M 117.484375 409.5 " style=" stroke:none;fill-rule:nonzero;fill:rgb(0%,0%,0%);fill-opacity:1;"></path><path d="M 117.484375 438.75 L 136.984375 438.75 L 136.984375 458.25 L 117.484375 458.25 Z M 117.484375 438.75 " style=" stroke:none;fill-rule:nonzero;fill:rgb(0%,0%,0%);fill-opacity:1;"></path><path d="M 146.730469 438.75 L 224.730469 438.75 L 224.730469 458.25 L 146.730469 458.25 Z M 146.730469 438.75 " style=" stroke:none;fill-rule:nonzero;fill:rgb(0%,0%,0%);fill-opacity:1;"></path><path d="M 185.730469 409.5 L 302.730469 409.5 L 302.730469 429 L 185.730469 429 Z M 185.730469 409.5 " style=" stroke:none;fill-rule:nonzero;fill:rgb(0%,0%,0%);fill-opacity:1;"></path><path d="M 234.480469 438.75 L 302.734375 438.75 L 302.734375 458.25 L 234.480469 458.25 Z M 234.480469 438.75 " style=" stroke:none;fill-rule:nonzero;fill:rgb(0%,0%,0%);fill-opacity:1;"></path><path d="M 63.855469 487.5 C 45.011719 487.5 29.730469 502.777344 29.730469 521.625 C 29.730469 540.472656 45.011719 555.75 63.855469 555.75 C 82.703125 555.75 97.980469 540.46875 97.980469 521.625 C 97.984375 502.777344 82.703125 487.5 63.855469 487.5 Z M 63.855469 536.25 C 55.78125 536.25 49.230469 529.703125 49.230469 521.625 C 49.230469 513.546875 55.78125 507 63.855469 507 C 71.933594 507 78.480469 513.546875 78.480469 521.625 C 78.484375 529.703125 71.933594 536.25 63.855469 536.25 Z M 63.855469 536.25 " style=" stroke:none;fill-rule:nonzero;fill:rgb(0%,0%,0%);fill-opacity:1;"></path><path d="M 117.484375 497.25 L 175.984375 497.25 L 175.984375 516.75 L 117.484375 516.75 Z M 117.484375 497.25 " style=" stroke:none;fill-rule:nonzero;fill:rgb(0%,0%,0%);fill-opacity:1;"></path><path d="M 117.484375 526.5 L 136.984375 526.5 L 136.984375 546 L 117.484375 546 Z M 117.484375 526.5 " style=" stroke:none;fill-rule:nonzero;fill:rgb(0%,0%,0%);fill-opacity:1;"></path><path d="M 146.730469 526.5 L 224.730469 526.5 L 224.730469 546 L 146.730469 546 Z M 146.730469 526.5 " style=" stroke:none;fill-rule:nonzero;fill:rgb(0%,0%,0%);fill-opacity:1;"></path><path d="M 185.730469 497.25 L 302.730469 497.25 L 302.730469 516.75 L 185.730469 516.75 Z M 185.730469 497.25 " style=" stroke:none;fill-rule:nonzero;fill:rgb(0%,0%,0%);fill-opacity:1;"></path><path d="M 234.480469 526.5 L 302.734375 526.5 L 302.734375 546 L 234.480469 546 Z M 234.480469 526.5 " style=" stroke:none;fill-rule:nonzero;fill:rgb(0%,0%,0%);fill-opacity:1;"></path></g></svg>