<!-- icon666.com - MILLIONS vector ICONS FREE --><svg viewBox="0 0 512 512.00002" xmlns="http://www.w3.org/2000/svg"><path d="m432.734375 512h-353.46875c-25.800781 0-47.132813-20.847656-47.132813-47.132812v-192.800782c0-8.285156 6.71875-15 15-15h417.734376c8.28125 0 15 6.714844 15 15v192.800782c0 25.742187-20.796876 47.132812-47.132813 47.132812zm0 0" fill="#fff36e"></path><path d="m464.867188 257.066406h-208.867188v254.933594h176.734375c26.335937 0 47.132813-21.390625 47.132813-47.132812v-192.800782c0-8.285156-6.71875-15-15-15zm0 0" fill="#ffcc01"></path><path d="m192.800781 257.066406h126.398438v254.933594h-126.398438zm0 0" fill="#ff5e91"></path><path d="m256 257.066406h63.199219v254.933594h-63.199219zm0 0" fill="#cf0050"></path><path d="m464.867188 257.066406h-417.734376c-8.28125 0-15 6.714844-15 15v45h447.734376v-45c0-8.285156-6.71875-15-15-15zm0 0" fill="#ffcc01"></path><path d="m464.867188 257.066406h-208.867188v60h223.867188v-45c0-8.285156-6.71875-15-15-15zm0 0" fill="#e19600"></path><path d="m192.800781 257.066406h126.398438v60h-126.398438zm0 0" fill="#cf0050"></path><path d="m256 256h63.199219v61.066406h-63.199219zm0 0" fill="#b20042"></path><path d="m376.5 0c-65.851562 0-102.21875 33.222656-120.296875 68.582031-21.53125-40.746093-64.351563-68.582031-113.554687-68.582031h-7.148438c-48.136719 0-87.300781 39.160156-87.300781 87.300781 0 48.136719 39.164062 87.300781 87.300781 87.300781h241c48.136719 0 87.300781-39.164062 87.300781-87.300781 0-48.140625-39.164062-87.300781-87.300781-87.300781zm-298.300781 87.300781c0-31.597656 25.707031-57.300781 57.300781-57.300781 96.84375 0 105.5 84.480469 105.5 98.351562v16.25h-105.5c-31.59375 0-57.300781-25.707031-57.300781-57.300781zm298.300781 57.300781h-105.5v-16.25c0-13.871093 8.65625-98.351562 105.5-98.351562 31.59375 0 57.300781 25.703125 57.300781 57.300781 0 31.59375-25.707031 57.300781-57.300781 57.300781zm0 0" fill="#ff5e91"></path><path d="m376.5 0c-65.851562 0-102.21875 33.222656-120.296875 68.582031-.066406-.125-.136719-.246093-.203125-.371093v106.390624h120.5c48.136719 0 87.300781-39.164062 87.300781-87.300781 0-48.140625-39.164062-87.300781-87.300781-87.300781zm0 144.601562h-105.5v-16.25c0-13.871093 8.65625-98.351562 105.5-98.351562 31.59375 0 57.300781 25.703125 57.300781 57.300781 0 31.59375-25.707031 57.300781-57.300781 57.300781zm0 0" fill="#cf0050"></path><path d="m464.867188 287.066406h-417.734376c-25.742187 0-47.132812-20.792968-47.132812-47.132812v-48.199219c0-25.828125 20.871094-47.132813 47.132812-47.132813h417.734376c25.808593 0 47.132812 20.851563 47.132812 47.132813v48.199219c0 25.804687-20.847656 47.132812-47.132812 47.132812zm0 0" fill="#fff36e"></path><path d="m464.867188 144.601562h-208.867188v142.464844h208.867188c26.285156 0 47.132812-21.328125 47.132812-47.132812v-48.199219c0-26.28125-21.324219-47.132813-47.132812-47.132813zm0 0" fill="#ffcc01"></path><path d="m176.734375 144.601562h158.53125v142.464844h-158.53125zm0 0" fill="#ff5e91"></path><path d="m256 144.601562h79.265625v142.464844h-79.265625zm0 0" fill="#cf0050"></path></svg>