<!-- icon666.com - MILLIONS vector ICONS FREE --><svg version="1.1" id="Capa_1" xmlns="http://www.w3.org/2000/svg" xmlns:xlink="http://www.w3.org/1999/xlink" x="0px" y="0px" viewBox="0 0 512.001 512.001" style="enable-background:new 0 0 512.001 512.001;" xml:space="preserve"><path id="SVGCleanerId_0" style="fill:#EE3835;" d="M256,439.279c-7.629,0-15.047-2.194-21.458-6.344L18.134,292.871 c-11.203-7.25-17.983-19.569-18.132-32.951c-0.147-13.385,6.356-25.851,17.397-33.351L233.812,79.55 c6.577-4.467,14.249-6.828,22.188-6.828c7.938,0,15.608,2.36,22.184,6.825l216.419,147.022 c11.043,7.506,17.546,19.975,17.395,33.355c-0.147,13.374-6.926,25.693-18.132,32.946L277.454,432.938 C271.048,437.085,263.628,439.279,256,439.279z"></path><g><path id="SVGCleanerId_0_1_" style="fill:#EE3835;" d="M256,439.279c-7.629,0-15.047-2.194-21.458-6.344L18.134,292.871 c-11.203-7.25-17.983-19.569-18.132-32.951c-0.147-13.385,6.356-25.851,17.397-33.351L233.812,79.55 c6.577-4.467,14.249-6.828,22.188-6.828c7.938,0,15.608,2.36,22.184,6.825l216.419,147.022 c11.043,7.506,17.546,19.975,17.395,33.355c-0.147,13.374-6.926,25.693-18.132,32.946L277.454,432.938 C271.048,437.085,263.628,439.279,256,439.279z"></path></g><path style="fill:#FFFFFF;" d="M256.052,425.073c-0.021,0-0.031,0-0.051,0l0,0c-4.265,0-7.727-3.461-7.727-7.726l0,0 c0-4.265,3.462-7.727,7.727-7.727l0,0c0.02,0,0.031,0,0.051,0l0,0c0.011,0,0.011,0,0.02,0l0,0c4.275-0.02,7.747,3.431,7.757,7.696 l0,0c0.01,4.275-3.431,7.747-7.695,7.757l0,0c-0.011,0-0.021,0-0.031,0l0,0C256.093,425.073,256.072,425.073,256.052,425.073z M215.833,406.221c-3.574-2.318-4.605-7.098-2.287-10.683l0,0c2.318-3.585,7.108-4.604,10.683-2.287l0,0 c3.585,2.318,4.605,7.098,2.287,10.683l0,0c-1.473,2.287-3.956,3.534-6.491,3.534l0,0 C218.584,407.467,217.132,407.065,215.833,406.221z M285.567,403.882c-2.318-3.585-1.299-8.365,2.287-10.683l0,0 c3.584-2.328,8.365-1.298,10.683,2.287l0,0c2.318,3.575,1.298,8.365-2.288,10.683l0,0c-1.297,0.835-2.75,1.236-4.191,1.236l0,0 C289.523,407.405,287.049,406.169,285.567,403.882z M181.683,384.113c-3.585-2.318-4.605-7.098-2.287-10.683l0,0 c2.318-3.575,7.098-4.605,10.683-2.287l0,0c3.585,2.318,4.605,7.108,2.287,10.683l0,0c-1.483,2.287-3.956,3.533-6.491,3.533l0,0 C184.434,385.359,182.981,384.958,181.683,384.113z M319.716,381.774c-2.317-3.585-1.287-8.365,2.298-10.683l0,0 c3.575-2.318,8.365-1.298,10.684,2.287l0,0c2.318,3.585,1.287,8.365-2.288,10.683l0,0c-1.298,0.844-2.75,1.247-4.192,1.247l0,0 C323.684,385.298,321.201,384.063,319.716,381.774z M147.533,362.016c-3.585-2.318-4.615-7.108-2.297-10.693l0,0 c2.318-3.574,7.108-4.604,10.683-2.287l0,0c3.585,2.318,4.615,7.108,2.297,10.693l0,0c-1.483,2.276-3.966,3.523-6.5,3.523l0,0 C150.283,363.253,148.82,362.85,147.533,362.016z M353.877,359.667c-2.317-3.585-1.298-8.365,2.287-10.683l0,0 c3.586-2.318,8.365-1.298,10.684,2.287l0,0c2.317,3.585,1.297,8.365-2.287,10.683l0,0c-1.298,0.845-2.751,1.247-4.193,1.247l0,0 C357.833,363.201,355.35,361.954,353.877,359.667z M113.372,339.908c-3.585-2.318-4.605-7.108-2.287-10.683l0,0 c2.318-3.586,7.098-4.616,10.683-2.288l0,0c3.585,2.308,4.605,7.098,2.287,10.683l0,0c-1.473,2.277-3.956,3.523-6.49,3.523l0,0 C116.122,341.145,114.67,340.742,113.372,339.908z M388.029,337.56c-2.318-3.586-1.288-8.365,2.297-10.684l0,0 c3.574-2.317,8.354-1.297,10.683,2.288l0,0c2.318,3.585,1.288,8.365-2.297,10.683l0,0c-1.299,0.845-2.751,1.247-4.183,1.247l0,0 C391.995,341.093,389.511,339.846,388.029,337.56z M79.221,317.8c-3.585-2.318-4.615-7.098-2.297-10.683l0,0 c2.328-3.585,7.108-4.604,10.693-2.287l0,0c3.575,2.318,4.605,7.098,2.287,10.683l0,0c-1.484,2.287-3.966,3.523-6.501,3.523l0,0 C81.972,319.037,80.509,318.646,79.221,317.8z M422.189,315.452c-2.328-3.575-1.298-8.365,2.287-10.683l0,0 c3.585-2.318,8.365-1.288,10.684,2.297l0,0c2.317,3.575,1.298,8.355-2.288,10.683l0,0c-1.298,0.835-2.75,1.236-4.192,1.236l0,0 C426.145,318.985,423.663,317.738,422.189,315.452z M45.061,295.692c-3.585-2.317-4.605-7.098-2.287-10.683l0,0 c2.318-3.585,7.098-4.605,10.683-2.287l0,0c3.585,2.318,4.605,7.098,2.288,10.683l0,0c-1.474,2.287-3.956,3.533-6.49,3.533l0,0 C47.811,296.939,46.359,296.537,45.061,295.692z M456.339,293.354c-2.317-3.585-1.298-8.365,2.287-10.683l0,0 c3.585-2.328,8.365-1.298,10.683,2.287l0,0c2.318,3.575,1.298,8.365-2.286,10.684l0,0c-1.298,0.834-2.751,1.236-4.193,1.236l0,0 C460.295,296.878,457.824,295.632,456.339,293.354z M27.465,265.169c-4.254-0.248-7.51-3.904-7.263-8.159l0,0 c0.247-4.265,3.894-7.521,8.159-7.273l0,0c4.254,0.247,7.51,3.904,7.262,8.159l0,0c-0.237,4.11-3.646,7.283-7.706,7.283l0,0 C27.764,265.179,27.62,265.179,27.465,265.169z M476.367,257.823c-0.258-4.265,2.977-7.922,7.241-8.19l0,0 c4.255-0.257,7.923,2.987,8.18,7.242l0,0c0.258,4.265-2.977,7.923-7.242,8.19l0,0c-0.153,0.011-0.318,0.011-0.474,0.011l0,0 C480.014,265.076,476.613,261.913,476.367,257.823z M45.627,231.378c-2.4-3.533-1.484-8.334,2.039-10.734l0,0 c3.533-2.4,8.334-1.483,10.734,2.05l0,0c2.4,3.533,1.483,8.334-2.05,10.734l0,0c-1.329,0.896-2.833,1.329-4.326,1.329l0,0 C49.541,234.757,47.121,233.573,45.627,231.378z M455.557,233.367c-3.533-2.4-4.441-7.201-2.051-10.734l0,0 c2.4-3.534,7.201-4.45,10.734-2.05l0,0c3.533,2.4,4.451,7.201,2.051,10.735l0,0c-1.494,2.204-3.926,3.389-6.397,3.389l0,0 C458.4,234.706,456.885,234.273,455.557,233.367z M79.272,208.519c-2.4-3.533-1.473-8.344,2.05-10.734l0,0 c3.533-2.4,8.334-1.483,10.734,2.05l0,0c2.4,3.523,1.483,8.334-2.05,10.724l0,0c-1.329,0.907-2.843,1.339-4.337,1.339l0,0 C83.198,211.898,80.767,210.713,79.272,208.519z M421.911,210.507c-3.533-2.4-4.45-7.201-2.05-10.734l0,0 c2.39-3.534,7.201-4.451,10.724-2.05l0,0c3.533,2.4,4.451,7.201,2.051,10.734l0,0c-1.494,2.195-3.926,3.39-6.398,3.39l0,0 C424.744,211.846,423.24,211.403,421.911,210.507z M112.929,185.649c-2.4-3.523-1.483-8.334,2.05-10.724l0,0 c3.534-2.401,8.334-1.483,10.734,2.04l0,0c2.4,3.534,1.473,8.344-2.05,10.734l0,0c-1.329,0.907-2.844,1.339-4.338,1.339l0,0 C116.853,189.038,114.422,187.853,112.929,185.649z M388.254,187.637c-3.532-2.39-4.45-7.201-2.05-10.724l0,0 c2.4-3.534,7.201-4.451,10.734-2.05l0,0c3.523,2.4,4.44,7.201,2.051,10.734l0,0c-1.494,2.195-3.925,3.379-6.397,3.379l0,0 C391.088,188.977,389.584,188.544,388.254,187.637z M146.585,162.789c-2.4-3.523-1.484-8.335,2.05-10.735l0,0 c3.523-2.39,8.334-1.473,10.724,2.05l0,0c2.4,3.534,1.483,8.334-2.04,10.734l0,0c-1.339,0.907-2.843,1.34-4.337,1.34l0,0 C150.509,166.179,148.079,164.994,146.585,162.789z M354.599,164.777c-3.533-2.39-4.45-7.201-2.05-10.734l0,0 c2.4-3.523,7.201-4.44,10.734-2.04l0,0c3.523,2.39,4.45,7.201,2.05,10.725l0,0c-1.494,2.204-3.926,3.389-6.397,3.389l0,0 C357.442,166.117,355.928,165.684,354.599,164.777z M180.241,139.93c-2.4-3.534-1.483-8.335,2.04-10.735l0,0 c3.533-2.4,8.345-1.483,10.734,2.05l0,0c2.4,3.534,1.483,8.334-2.05,10.734l0,0c-1.329,0.906-2.833,1.339-4.327,1.339l0,0 C184.155,143.318,181.734,142.124,180.241,139.93z M320.943,141.918c-3.522-2.4-4.44-7.201-2.05-10.734l0,0 c2.4-3.523,7.211-4.45,10.734-2.05l0,0c3.533,2.4,4.45,7.211,2.05,10.735l0,0c-1.493,2.204-3.925,3.389-6.397,3.389l0,0 C323.786,143.257,322.272,142.824,320.943,141.918z M213.886,117.069c-2.4-3.533-1.483-8.334,2.05-10.734l0,0 c3.534-2.4,8.334-1.483,10.734,2.05l0,0c2.4,3.523,1.483,8.334-2.05,10.734l0,0c-1.329,0.896-2.843,1.329-4.337,1.329l0,0 C217.811,120.449,215.38,119.264,213.886,117.069z M287.297,119.058c-3.533-2.4-4.451-7.201-2.051-10.734l0,0 c2.391-3.534,7.201-4.45,10.725-2.05l0,0c3.533,2.4,4.451,7.202,2.051,10.735l0,0c-1.494,2.205-3.926,3.389-6.397,3.389l0,0 C290.13,120.397,288.626,119.964,287.297,119.058z M248.222,94.663c-0.01-4.265,3.441-7.727,7.716-7.736l0,0 c4.265-0.011,7.726,3.44,7.737,7.716l0,0c0.011,4.265-3.451,7.726-7.716,7.737l0,0h-0.011l0,0 C251.684,102.379,248.233,98.928,248.222,94.663z"></path><path style="fill:#FECF05;" d="M256,396.744c-1.71,0-3.42-0.485-4.918-1.454L52.624,266.844c-2.561-1.658-4.122-4.496-4.157-7.555 c-0.034-3.059,1.465-5.931,3.988-7.646l198.459-134.822c1.537-1.043,3.312-1.565,5.086-1.565s3.552,0.522,5.089,1.565 l198.456,134.822c2.523,1.714,4.022,4.587,3.988,7.646s-1.596,5.897-4.157,7.555L260.92,395.29 C259.423,396.259,257.71,396.744,256,396.744z"></path><path style="opacity:0.1;enable-background:new ;" d="M268.875,383.868c-1.71,0-3.42-0.484-4.917-1.453L65.5,253.968 c-2.561-1.657-4.122-4.496-4.157-7.554c-0.003-0.282,0.02-0.56,0.042-0.837l-8.931,6.067c-2.523,1.714-4.022,4.587-3.988,7.646 c0.034,3.059,1.596,5.897,4.157,7.555l198.46,128.445c1.497,0.969,3.207,1.454,4.918,1.454c1.71,0,3.423-0.485,4.92-1.454 l16.325-10.567l-3.514-2.274C272.25,383.392,270.563,383.868,268.875,383.868z"></path><g><path style="fill:#EE3835;" d="M127.485,238.721c4.951,0,9.212,3.708,9.912,8.625c0.584,4.101,4.377,6.951,8.482,6.369 c4.101-0.583,6.952-4.381,6.369-8.482c-1.745-12.264-12.391-21.512-24.762-21.512c-13.795,0-25.017,11.251-25.017,25.081v21.348 c0,13.83,11.223,25.081,25.017,25.081c10.989,0,20.85-7.371,23.98-17.925c1.178-3.971-1.087-8.145-5.058-9.323 c-3.97-1.177-8.145,1.087-9.323,5.058c-1.255,4.233-5.203,7.189-9.599,7.189c-5.523,0-10.017-4.522-10.017-10.081v-21.348 C117.468,243.244,121.962,238.721,127.485,238.721z"></path><path style="fill:#EE3835;" d="M384.516,223.721c-13.793,0-25.014,11.251-25.014,25.081v21.348 c0,13.83,11.221,25.081,25.014,25.081c13.794,0,25.017-11.251,25.017-25.081v-21.348 C409.533,234.973,398.31,223.721,384.516,223.721z M394.533,270.151c0,5.559-4.493,10.081-10.017,10.081 c-5.522,0-10.014-4.522-10.014-10.081v-21.348c0-5.559,4.492-10.081,10.014-10.081c5.523,0,10.017,4.522,10.017,10.081V270.151z"></path><path style="fill:#EE3835;" d="M185.114,223.721c-13.792,0-25.013,11.251-25.013,25.081v38.929c0,4.142,3.358,7.5,7.5,7.5 s7.5-3.358,7.5-7.5v-15.105h20.031v15.105c0,4.142,3.358,7.5,7.5,7.5s7.5-3.358,7.5-7.5v-38.929 C210.132,234.973,198.909,223.721,185.114,223.721z M195.132,257.628h-20.031v-8.824c0-5.559,4.492-10.081,10.013-10.081 c5.524,0,10.018,4.522,10.018,10.081V257.628z"></path><path style="fill:#EE3835;" d="M282.391,223.721c-4.143,0-7.5,3.358-7.5,7.5v56.511c0,4.142,3.357,7.5,7.5,7.5s7.5-3.358,7.5-7.5 v-56.511C289.891,227.079,286.534,223.721,282.391,223.721z"></path><path style="fill:#EE3835;" d="M247.397,251.977h-4.885h-5.864h-0.194c-2.188,0-4.036-2.418-4.036-5.281v-2.692 c0-2.863,1.848-5.282,4.036-5.282h16.614c4.143,0,7.5-3.358,7.5-7.5s-3.357-7.5-7.5-7.5h-16.614 c-10.497,0-19.036,9.098-19.036,20.282v2.692c0,11.183,8.54,20.281,19.036,20.281h0.194h5.864h4.885 c2.188,0,4.036,2.419,4.036,5.283v2.691c0,2.863-1.848,5.281-4.036,5.281h-18.96c-4.142,0-7.5,3.358-7.5,7.5s3.358,7.5,7.5,7.5 h18.96c10.496,0,19.036-9.098,19.036-20.281v-2.691C266.433,261.076,257.893,251.977,247.397,251.977z"></path><path style="fill:#EE3835;" d="M325.71,223.721c-13.793,0-25.014,11.251-25.014,25.081v38.929c0,4.142,3.357,7.5,7.5,7.5 s7.5-3.358,7.5-7.5v-38.929c0-5.559,4.492-10.081,10.014-10.081c5.523,0,10.017,4.522,10.017,10.081v38.929 c0,4.142,3.358,7.5,7.5,7.5c4.143,0,7.5-3.358,7.5-7.5v-38.929C350.728,234.973,339.505,223.721,325.71,223.721z"></path><path style="fill:#EE3835;" d="M270.442,362.438c-0.521,0-1.046-0.092-1.55-0.282l-12.893-4.859l-12.892,4.859 c-0.503,0.189-1.028,0.282-1.549,0.282c-0.919,0-1.827-0.288-2.592-0.844c-1.198-0.875-1.879-2.294-1.813-3.779l0.619-13.81 l-8.587-10.807c-0.922-1.162-1.203-2.712-0.746-4.126c0.458-1.414,1.592-2.502,3.021-2.897l13.274-3.676l7.585-11.538 c0.817-1.24,2.199-1.987,3.679-1.987c1.481,0,2.865,0.747,3.679,1.987l7.587,11.538l13.275,3.676 c1.428,0.395,2.562,1.483,3.02,2.897c0.458,1.414,0.177,2.964-0.746,4.126l-8.587,10.807l0.618,13.811 c0.065,1.486-0.614,2.905-1.812,3.779C272.269,362.149,271.361,362.438,270.442,362.438z"></path></g><g><circle style="fill:#FFFFFF;" cx="126.5" cy="166" r="42.616"></circle><circle style="fill:#FFFFFF;" cx="298.68" cy="166" r="42.616"></circle></g><g><circle style="fill:#FECF05;" cx="385.5" cy="166" r="42.616"></circle><circle style="fill:#FECF05;" cx="212.21" cy="166" r="42.616"></circle></g><g><path style="fill:#C0272D;" d="M385.498,115.879c-18.532,0-34.735,10.12-43.407,25.115c-8.671-14.996-24.874-25.115-43.407-25.115 c-18.41,0-34.522,9.985-43.234,24.817c-8.712-14.833-24.825-24.817-43.235-24.817c-18.139,0-34.057,9.686-42.856,24.157 c-8.798-14.471-24.717-24.157-42.855-24.157c-27.634,0-50.116,22.482-50.116,50.116s22.482,50.116,50.116,50.116 c18.139,0,34.057-9.686,42.855-24.157c8.799,14.471,24.717,24.157,42.856,24.157c18.41,0,34.522-9.985,43.235-24.817 c8.712,14.833,24.824,24.817,43.234,24.817c18.533,0,34.736-10.12,43.407-25.115c8.672,14.996,24.875,25.115,43.407,25.115 c27.634,0,50.116-22.482,50.116-50.116S413.131,115.879,385.498,115.879z M126.502,201.112c-19.363,0-35.116-15.753-35.116-35.116 s15.753-35.116,35.116-35.116s35.117,15.753,35.117,35.116S145.866,201.112,126.502,201.112z M212.214,201.112 c-19.363,0-35.117-15.753-35.117-35.116s15.753-35.116,35.117-35.116c19.363,0,35.116,15.753,35.116,35.116 S231.577,201.112,212.214,201.112z M298.683,201.112c-19.362,0-35.115-15.753-35.115-35.116s15.753-35.116,35.115-35.116 c19.363,0,35.117,15.753,35.117,35.116S318.046,201.112,298.683,201.112z M385.498,201.112c-19.363,0-35.116-15.753-35.116-35.116 s15.753-35.116,35.116-35.116s35.116,15.753,35.116,35.116S404.861,201.112,385.498,201.112z"></path><path style="fill:#C0272D;" d="M126.502,138.322c-11.236,0-20.377,8.996-20.377,20.053v15.242c0,11.057,9.141,20.052,20.377,20.052 s20.377-8.995,20.377-20.052v-15.242C146.88,147.318,137.739,138.322,126.502,138.322z M131.88,173.617 c0,2.786-2.412,5.052-5.377,5.052s-5.377-2.266-5.377-5.052v-15.242c0-2.786,2.412-5.053,5.377-5.053s5.377,2.267,5.377,5.053 V173.617z"></path><path style="fill:#C0272D;" d="M385.498,138.672c-11.234,0-20.375,8.898-20.375,19.835v27.313c0,4.142,3.357,7.5,7.5,7.5 s7.5-3.358,7.5-7.5v-27.313c0-2.666,2.411-4.835,5.375-4.835c2.966,0,5.379,2.169,5.379,4.835v27.313c0,4.142,3.357,7.5,7.5,7.5 s7.5-3.358,7.5-7.5v-27.313C405.876,147.57,396.735,138.672,385.498,138.672z"></path><path style="fill:#C0272D;" d="M311.56,153.793c4.143,0,7.5-3.358,7.5-7.5s-3.357-7.5-7.5-7.5h-20.604 c-6.976,0-12.651,5.675-12.651,12.651v29.104c0,6.975,5.676,12.651,12.651,12.651h20.604c4.143,0,7.5-3.358,7.5-7.5 s-3.357-7.5-7.5-7.5h-18.255v-4.703h18.255c4.143,0,7.5-3.358,7.5-7.5s-3.357-7.5-7.5-7.5h-18.255v-4.702h18.255V153.793z"></path><path style="fill:#C0272D;" d="M216.372,138.325h-12.876c-4.142,0-7.5,3.358-7.5,7.5v40.34c0,4.142,3.358,7.5,7.5,7.5 s7.5-3.358,7.5-7.5v-7.74h5.376c11.237,0,20.378-8.994,20.378-20.05C236.75,147.32,227.608,138.325,216.372,138.325z M216.372,163.426h-5.376v-10.101h5.376c2.966,0,5.378,2.266,5.378,5.051C221.75,161.161,219.337,163.426,216.372,163.426z"></path></g></svg>