<!-- icon666.com - MILLIONS vector ICONS FREE --><svg version="1.1" id="Layer_1" xmlns="http://www.w3.org/2000/svg" xmlns:xlink="http://www.w3.org/1999/xlink" x="0px" y="0px" viewBox="0 0 512 512" style="enable-background:new 0 0 512 512;" xml:space="preserve"><path style="fill:#32BEA6;" d="M95.248,0h321.504C469.36,0,512,42.64,512,95.248v321.504C512,469.36,469.36,512,416.752,512H95.248 C42.64,512,0,469.36,0,416.752V95.248C0,42.64,42.64,0,95.248,0z"></path><g><path style="fill:#FFFFFF;" d="M256,440c-101.624,0-184-82.376-184-184S154.376,72,256,72s184,82.376,184,184 C439.888,357.576,357.576,439.888,256,440z M256,96c-88.368,0-160,71.632-160,160s71.632,160,160,160s160-71.632,160-160 C415.904,167.672,344.328,96.096,256,96z"></path><polygon style="fill:#FFFFFF;" points="240.24,332.36 170.808,269.872 186.864,252.032 237.432,297.544 323.816,190.104 342.512,205.128 "></polygon></g></svg>