<!-- icon666.com - MILLIONS vector ICONS FREE --><svg viewBox="0 0 48 48" xmlns="http://www.w3.org/2000/svg"><g id="_21" data-name="21"><path d="m0 16v32h24l1-16-1-16z" fill="#4db6ac"></path><path d="m24 16h24v32h-24z" fill="#26a69a"></path><path d="m38 16v2a8 8 0 0 0 8 8h2v-10z" fill="#00796b"></path><path d="m38 46v2h10v-10h-2a8 8 0 0 0 -8 8z" fill="#00796b"></path><path d="m2 38h-2v10h10v-2a8 8 0 0 0 -8-8z" fill="#00897b"></path><path d="m0 26h2a8 8 0 0 0 8-8v-2h-10z" fill="#00897b"></path><path d="m24 24a8 8 0 0 0 0 16l1-8z" fill="#ffda2d"></path><path d="m32 32a8 8 0 0 0 -8-8v16a8 8 0 0 0 8-8z" fill="#fbc02d"></path><path d="m22 0v6h-4.83l6.83 6.83 1-6.42-1-6.41z" fill="#6aa9ff"></path><path d="m26 6v-6h-2v12.83l6.83-6.83z" fill="#4e92e5"></path></g></svg>