<!-- icon666.com - MILLIONS vector ICONS FREE --><svg viewBox="0 0 64 64" xmlns="http://www.w3.org/2000/svg"><path d="m20 55h24v6h-24z" fill="#d69122"></path><path d="m29 55h2v3h-2z" fill="#aa701b"></path><path d="m33 55h2v3h-2z" fill="#aa701b"></path><path d="m37 55h2v3h-2z" fill="#aa701b"></path><path d="m20 49h24v6h-24z" fill="#eaa33d"></path><path d="m29 49h2v3h-2z" fill="#aa701b"></path><path d="m33 49h2v3h-2z" fill="#aa701b"></path><path d="m37 49h2v3h-2z" fill="#aa701b"></path><path d="m21 43h24v6h-24z" fill="#d69122"></path><path d="m28 43h2v3h-2z" fill="#aa701b"></path><path d="m32 43h2v3h-2z" fill="#aa701b"></path><path d="m36 43h2v3h-2z" fill="#aa701b"></path><path d="m40 43h2v3h-2z" fill="#aa701b"></path><path d="m24 43h2v3h-2z" fill="#aa701b"></path><path d="m21 37h24v6h-24z" fill="#ffd782"></path><g fill="#aa701b"><path d="m28 37h2v3h-2z"></path><path d="m32 37h2v3h-2z"></path><path d="m36 37h2v3h-2z"></path><path d="m40 37h2v3h-2z"></path><path d="m24 37h2v3h-2z"></path><path d="m25 49h2v3h-2z"></path><path d="m25 55h2v3h-2z"></path></g><path d="m25 3h14v14h-14z" fill="#ffd782"></path><path d="m25 17h14v20h-14z" fill="#195c85"></path><path d="m28 6h2v2h-2z" fill="#394d5c"></path><path d="m34 6h2v2h-2z" fill="#394d5c"></path><path d="m32 14a1 1 0 0 1 -.555-.168l-3-2a1 1 0 0 1 1.11-1.664l2.445 1.632 2.445-1.63a1 1 0 1 1 1.11 1.664l-3 2a1 1 0 0 1 -.555.166z" fill="#394d5c"></path><path d="m25 17-9-5-2 4 11 8z" fill="#1f729b"></path><path d="m16 12-2.936-1.761a2.23 2.23 0 0 0 -3.141.914 2.23 2.23 0 0 0 .847 2.909l3.23 1.938z" fill="#ffd782"></path><path d="m48 12 2.935-1.761a2.23 2.23 0 0 1 3.142.915 2.231 2.231 0 0 1 -.847 2.909l-3.23 1.937z" fill="#ffd782"></path><path d="m39 17 9-5 2 4-11 8z" fill="#1f729b"></path><path d="m29 17 3 4 3-4z" fill="#e1462b"></path><path d="m32 21-2 6 2 6 2-6z" fill="#e1462b"></path><path d="m56 24a4 4 0 0 1 -4-4 1 1 0 0 0 -2 0 4 4 0 0 1 -4 4 1 1 0 0 0 0 2 4 4 0 0 1 4 4 1 1 0 0 0 2 0 4 4 0 0 1 4-4 1 1 0 0 0 0-2zm-5 2.69a6.044 6.044 0 0 0 -1.69-1.69 6.044 6.044 0 0 0 1.69-1.69 6.044 6.044 0 0 0 1.69 1.69 6.044 6.044 0 0 0 -1.69 1.69z" fill="#fcf05a"></path><path d="m15 29a4 4 0 0 1 -4-4 1 1 0 0 0 -2 0 4 4 0 0 1 -4 4 1 1 0 0 0 0 2 4 4 0 0 1 4 4 1 1 0 0 0 2 0 4 4 0 0 1 4-4 1 1 0 0 0 0-2zm-5 2.69a6.044 6.044 0 0 0 -1.69-1.69 6.044 6.044 0 0 0 1.69-1.69 6.044 6.044 0 0 0 1.69 1.69 6.044 6.044 0 0 0 -1.69 1.69z" fill="#fcf05a"></path><path d="m44 55h16v6h-16z" fill="#f9bb4b" transform="matrix(-1 0 0 -1 104 116)"></path><path d="m55 55h2v3h-2z" fill="#aa701b"></path><path d="m51 55h2v3h-2z" fill="#aa701b"></path><path d="m47 55h2v3h-2z" fill="#aa701b"></path><path d="m44 49h16v6h-16z" fill="#ffd782" transform="matrix(-1 0 0 -1 104 104)"></path><path d="m55 49h2v3h-2z" fill="#aa701b"></path><path d="m51 49h2v3h-2z" fill="#aa701b"></path><path d="m47 49h2v3h-2z" fill="#aa701b"></path><path d="m45 43h16v6h-16z" fill="#f9bb4b" transform="matrix(-1 0 0 -1 106 92)"></path><path d="m56 43h2v3h-2z" fill="#aa701b"></path><path d="m52 43h2v3h-2z" fill="#aa701b"></path><path d="m48 43h2v3h-2z" fill="#aa701b"></path><path d="m5 43h16v6h-16z" fill="#f9bb4b" transform="matrix(-1 0 0 -1 26 92)"></path><path d="m16 43h2v3h-2z" fill="#aa701b"></path><path d="m12 43h2v3h-2z" fill="#aa701b"></path><path d="m8 43h2v3h-2z" fill="#aa701b"></path><path d="m4 55h16v6h-16z" fill="#f9bb4b" transform="matrix(-1 0 0 -1 24 116)"></path><path d="m15 55h2v3h-2z" fill="#aa701b"></path><path d="m11 55h2v3h-2z" fill="#aa701b"></path><path d="m7 55h2v3h-2z" fill="#aa701b"></path><path d="m4 49h16v6h-16z" fill="#ffd782" transform="matrix(-1 0 0 -1 24 104)"></path><path d="m15 49h2v3h-2z" fill="#aa701b"></path><path d="m11 49h2v3h-2z" fill="#aa701b"></path><path d="m7 49h2v3h-2z" fill="#aa701b"></path><path d="m17 25h2v2h-2z" fill="#87cee9"></path><path d="m43 30h2v2h-2z" fill="#87cee9"></path></svg>