<!-- icon666.com - MILLIONS vector ICONS FREE --><svg id="gradient" viewBox="0 0 64 64" xmlns="http://www.w3.org/2000/svg" xmlns:xlink="http://www.w3.org/1999/xlink"><linearGradient id="linear-gradient" gradientUnits="userSpaceOnUse" x1="3.995" x2="60.003" y1="32.014" y2="32.014"><stop offset="0" stop-color="#ffde00"></stop><stop offset="1" stop-color="#fd5900"></stop></linearGradient><path d="m49.73 13.19a2.82563 2.82563 0 0 0 -1.97-.78h-4.9c-1.76726-.10006-2.73 1.8091-3.63 3.00008a5.64886 5.64886 0 0 0 -.58.96995h-13.23c-.09-.2-1.53-2.6-1.53-2.6a2.84594 2.84594 0 0 0 -2.42-1.37h-5.55a2.75285 2.75285 0 0 0 -1.63.52c-2.35 1.69997-10.04 9.07997-10.29 33.00997-.08756 1.75931 1.09447 3.21219 2.35009 4.30993a5.27884 5.27884 0 0 0 4.26991 1.33994 4.63661 4.63661 0 0 0 3.43-1.51987l7.69-8.4h20.29l7.72 8.41a5.29072 5.29072 0 0 0 6.88.51006l1.6-1.27a4.6434 4.6434 0 0 0 1.77-3.80006c-.25-7-1.74-24.15-10.27-32.33zm-.39 23.37a3.44527 3.44527 0 0 1 .0001-6.89 3.44527 3.44527 0 0 1 -.0001 6.89zm-29.3-4.08a3.12526 3.12526 0 0 1 -6.25-.0001v-.9099h-.91a3.13019 3.13019 0 0 1 .0001-6.26h.9099c-.56377-5.3526 6.81829-5.36631 6.25 0h.91a3.13018 3.13018 0 0 1 -.00009 6.26h-.90991zm19.73 2.29a3.44514 3.44514 0 0 1 .0001-6.88995 3.44514 3.44514 0 0 1 -.0001 6.88995zm5.88-12.66a3.44517 3.44517 0 0 1 -.0001 6.89 3.44517 3.44517 0 0 1 .0001-6.89zm-7.61-3.73c-.18133.7676.2973 2.1574-.88 2.22h-10.29a.82371.82371 0 0 1 -.82-.82 10.32319 10.32319 0 0 0 -.05-1.4zm-19 11.19a1.00291 1.00291 0 0 0 -1 1v1.90992a1.12519 1.12519 0 0 1 -2.25 0v-1.90992a1.00288 1.00288 0 0 0 -1-1h-1.90994a1.13016 1.13016 0 0 1 -.00006-2.26h1.91a1.00291 1.00291 0 0 0 1-1v-1.91a1.125 1.125 0 0 1 2.25 0v1.91a1.003 1.003 0 0 0 1 1h1.91a1.13967 1.13967 0 0 1 .81 1.92c-.4435.5629-2.02427.2746-2.72.34zm26.61-5.46a1.4451 1.4451 0 0 1 0 2.89 1.4451 1.4451 0 0 1 0-2.89zm-5.87988 8.66a1.44506 1.44506 0 0 1 -.00012-2.89 1.44506 1.44506 0 0 1 .00008 2.89zm9.57 1.79a1.44523 1.44523 0 0 1 -.00012-2.89 1.44523 1.44523 0 0 1 .00009 2.89z" fill="url(#linear-gradient)"></path></svg>