<!-- icon666.com - MILLIONS vector ICONS FREE --><svg id="Layer_1" enable-background="new 0 0 256 256" viewBox="0 0 256 256" xmlns="http://www.w3.org/2000/svg"><path d="m4 58.623h248v138.755h-248z" fill="#f4efed"></path><path d="m242 58.623h10v138.755h-10z" fill="#d6d1cf"></path><path d="m4 58.623h10v138.755h-10z" fill="#fff"></path><path d="m32.661 197.377c0-15.829-12.832-28.661-28.661-28.661v28.661z" fill="#7bac51"></path><path d="m4 168.716v28.661h10v-26.865c-3.114-1.159-6.482-1.796-10-1.796z" fill="#99ca6f"></path><path d="m4 87.284c15.829 0 28.661-12.832 28.661-28.661h-28.661z" fill="#7bac51"></path><path d="m14 58.623h-10v28.661c3.518 0 6.886-.637 10-1.796z" fill="#99ca6f"></path><ellipse cx="55.762" cy="128" fill="#fcc24c" rx="8.701" ry="8.701" transform="matrix(.707 -.707 .707 .707 -74.178 76.92)"></ellipse><ellipse cx="200.238" cy="128" fill="#fcc24c" rx="8.701" ry="8.701" transform="matrix(.229 -.974 .974 .229 29.802 293.623)"></ellipse><circle cx="128" cy="128" fill="#7bac51" r="40.716"></circle><path d="m252 87.284c-15.829 0-28.661-12.832-28.661-28.661h28.661z" fill="#7bac51"></path><path d="m223.339 197.377c0-15.829 12.832-28.661 28.661-28.661v28.661z" fill="#7bac51"></path><g fill="#690589"><path d="m128.621 101.091c1.492 0 2.672 1.181 2.672 2.672v1.367c3.667.435 6.774 1.616 9.633 3.418.994.559 1.865 1.492 1.865 2.983 0 1.926-1.554 3.418-3.48 3.418-.622 0-1.243-.186-1.865-.56-2.175-1.305-4.288-2.237-6.401-2.735v11.932c9.446 2.362 13.486 6.153 13.486 12.802 0 6.836-5.345 11.373-13.237 12.118v3.729c0 1.492-1.181 2.672-2.672 2.672s-2.734-1.181-2.734-2.672v-3.853c-4.661-.497-8.949-2.175-12.74-4.847-1.057-.684-1.678-1.678-1.678-2.983 0-1.926 1.492-3.418 3.418-3.418.746 0 1.491.248 2.051.683 2.921 2.113 5.78 3.542 9.198 4.164v-12.241c-9.074-2.362-13.3-5.78-13.3-12.803 0-6.649 5.283-11.249 13.051-11.87v-1.305c-.001-1.491 1.242-2.671 2.733-2.671zm-2.485 21.192v-11c-3.977.373-5.966 2.486-5.966 5.22 0 2.61 1.18 4.226 5.966 5.78zm4.909 8.638v11.31c3.977-.435 6.152-2.424 6.152-5.407 0-2.734-1.366-4.411-6.152-5.903z"></path><path d="m128 170.716c-23.554 0-42.716-19.162-42.716-42.716s19.162-42.716 42.716-42.716 42.716 19.162 42.716 42.716-19.162 42.716-42.716 42.716zm0-81.432c-21.348 0-38.716 17.368-38.716 38.716s17.368 38.716 38.716 38.716 38.716-17.368 38.716-38.716-17.368-38.716-38.716-38.716z"></path><path d="m55.762 138.701c-5.901 0-10.701-4.801-10.701-10.701s4.8-10.701 10.701-10.701 10.701 4.801 10.701 10.701-4.8 10.701-10.701 10.701zm0-17.402c-3.695 0-6.701 3.006-6.701 6.701s3.006 6.701 6.701 6.701 6.701-3.006 6.701-6.701-3.007-6.701-6.701-6.701z"></path><path d="m200.238 138.701c-5.901 0-10.701-4.801-10.701-10.701s4.8-10.701 10.701-10.701 10.701 4.801 10.701 10.701-4.8 10.701-10.701 10.701zm0-17.402c-3.695 0-6.701 3.006-6.701 6.701s3.006 6.701 6.701 6.701 6.701-3.006 6.701-6.701-3.006-6.701-6.701-6.701z"></path><path d="m4 89.284c-1.105 0-2-.896-2-2v-28.661c0-1.104.895-2 2-2h28.662c1.104 0 2 .896 2 2 0 16.906-13.755 30.661-30.662 30.661zm2-28.661v24.587c13.11-.978 23.61-11.478 24.587-24.587z"></path><path d="m32.662 199.377h-28.662c-1.105 0-2-.896-2-2v-28.661c0-1.105.895-2 2-2 16.907 0 30.662 13.755 30.662 30.661 0 1.104-.896 2-2 2zm-26.662-4h24.587c-.977-13.109-11.477-23.609-24.587-24.587z"></path><path d="m12.645 113.269c-1.105 0-2-.896-2-2v-12c0-1.104.895-2 2-2 1.104 0 2 .896 2 2v12c0 1.104-.896 2-2 2z"></path></g><path d="m252 168.716v28.661h-10v-26.865c3.114-1.159 6.482-1.796 10-1.796z" fill="#5d8e33"></path><path d="m242 58.623h10v28.661c-3.518 0-6.886-.637-10-1.796z" fill="#5d8e33"></path><path d="m252 89.284c-16.907 0-30.662-13.755-30.662-30.661 0-1.104.895-2 2-2h28.662c1.104 0 2 .896 2 2v28.661c0 1.105-.896 2-2 2zm-26.587-28.661c.977 13.109 11.477 23.609 24.587 24.587v-24.587z" fill="#690589"></path><path d="m252 199.377h-28.662c-1.105 0-2-.896-2-2 0-16.906 13.755-30.661 30.662-30.661 1.104 0 2 .895 2 2v28.661c0 1.104-.896 2-2 2zm-26.587-4h24.587v-24.587c-13.11.978-23.61 11.478-24.587 24.587z" fill="#690589"></path><path d="m252 199.377h-248c-1.105 0-2-.896-2-2v-138.754c0-1.104.895-2 2-2h248c1.104 0 2 .896 2 2v138.754c0 1.104-.896 2-2 2zm-246-4h244v-134.754h-244z" fill="#690589"></path><path d="m187.334 63.625-.631-13.217-8.301 8.301c-14.74-14.731-34.334-22.845-55.175-22.845-20.849 0-40.45 8.119-55.192 22.861l8.936 8.936c12.355-12.356 28.782-19.16 46.256-19.16 17.465 0 33.885 6.798 46.239 19.143l-7.935 7.935 13.217.631 13.217.631z" fill="#ff4397"></path><path d="m68.666 192.375.631 13.217 8.301-8.301c14.74 14.731 34.334 22.845 55.175 22.845 20.849 0 40.45-8.119 55.192-22.861l-8.936-8.936c-12.355 12.356-28.782 19.16-46.256 19.16-17.465 0-33.885-6.798-46.239-19.143l7.935-7.935-13.217-.631-13.217-.631z" fill="#ff4397"></path><path d="m187.965 78.842c-.032 0-.063-.001-.095-.002l-26.435-1.262c-.791-.038-1.485-.539-1.77-1.277s-.108-1.575.452-2.135l6.499-6.499c-11.798-11.085-27.127-17.165-43.389-17.165-16.939 0-32.864 6.596-44.841 18.573-.78.781-2.047.781-2.828 0l-8.937-8.936c-.375-.375-.586-.884-.586-1.414s.211-1.039.586-1.414c15.121-15.12 35.224-23.447 56.606-23.447 20.706 0 40.214 7.81 55.158 22.034l6.905-6.905c.559-.56 1.396-.737 2.135-.451.738.285 1.239.979 1.276 1.77l1.262 26.435c.027.563-.185 1.111-.583 1.51-.377.375-.885.585-1.415.585zm-21.824-5.044 19.722.941-.526-11.019-.416-8.703-5.105 5.105c-.78.781-2.047.78-2.828.001-14.363-14.354-33.456-22.26-53.762-22.26-19.646 0-38.155 7.399-52.345 20.879l6.11 6.11c12.555-11.85 28.895-18.352 46.235-18.352 17.998 0 34.922 7.006 47.653 19.728.375.375.586.884.586 1.415 0 .53-.21 1.039-.586 1.414z" fill="#690589"></path><path d="m132.773 222.136c-20.706 0-40.214-7.809-55.158-22.034l-6.905 6.905c-.56.559-1.397.737-2.135.451-.738-.285-1.239-.979-1.276-1.769l-1.262-26.435c-.027-.564.185-1.111.583-1.51.398-.398.952-.606 1.509-.584l26.435 1.262c.791.038 1.485.539 1.771 1.277.285.738.108 1.575-.452 2.135l-6.499 6.499c11.798 11.085 27.127 17.165 43.389 17.165 16.939 0 32.864-6.596 44.841-18.573.78-.781 2.047-.781 2.828 0l8.937 8.936c.375.375.586.884.586 1.414s-.211 1.039-.586 1.414c-15.12 15.12-35.223 23.447-56.606 23.447zm-55.175-26.845c.512 0 1.023.195 1.414.585 14.363 14.354 33.456 22.26 53.762 22.26 19.645 0 38.155-7.399 52.345-20.879l-6.11-6.11c-12.555 11.85-28.895 18.352-46.235 18.352-17.998 0-34.922-7.006-47.653-19.728-.375-.375-.586-.884-.586-1.415 0-.53.21-1.039.586-1.414l4.739-4.739-19.722-.941.526 11.019.416 8.703 5.105-5.105c.389-.393.901-.588 1.413-.588z" fill="#690589"></path></svg>