<!-- icon666.com - MILLIONS vector ICONS FREE --><svg viewBox="0 0 256 256" xmlns="http://www.w3.org/2000/svg"><path d="m249.247 190.16a58.81 58.81 0 1 1 -66.83-58.26 57.361 57.361 0 0 1 8.02-.55 58.81 58.81 0 0 1 58.81 58.81z" fill="#fb5c3c"></path><path d="m182.417 31.04v100.86a58.837 58.837 0 0 0 -43.2 87.19c-2.39.39-4.84.74-7.37 1.06a293.973 293.973 0 0 1 -37.27 2.27c-48.5 0-87.83-10.75-87.83-24.02v-167.36c0-13.27 39.33-24.02 87.83-24.02s87.84 10.75 87.84 24.02z" fill="#71c1e8"></path><path d="m182.417 124.84v7.06a58.837 58.837 0 0 0 -43.2 87.19c-2.39.39-4.84.74-7.37 1.06a65.829 65.829 0 0 1 50.57-95.31z" fill="#4ba4c7"></path><rect fill="#eee" height="21.5" rx="3" width="62.5" x="159.187" y="179.415"></rect><path d="m190.438 241.456a50.971 50.971 0 0 1 -36.285-15 2.5 2.5 0 0 1 3.536-3.535 46.326 46.326 0 0 0 72.968-55.731 2.5 2.5 0 0 1 4.343-2.482 51.336 51.336 0 0 1 -44.561 76.748zm34.7-81.966c-.623-.7-1.28-1.4-1.952-2.074a2.5 2.5 0 0 1 3.535-3.536c.745.745 1.471 1.517 2.161 2.3a2.5 2.5 0 1 1 -3.744 3.313z" fill="#ffcac2"></path><path d="m14.867 199.17a2.5 2.5 0 0 1 -.618-1.645v-140.607a2.5 2.5 0 0 1 5 0v139.573c7.635 6.683 44.552 15.284 89.669 13.118a2.5 2.5 0 1 1 .24 4.994c-42.8 2.056-85.672-5.576-94.291-15.433zm104.147 14.782a2.5 2.5 0 0 1 -.2-4.992q1.479-.123 2.962-.263a2.5 2.5 0 1 1 .468 4.978q-1.509.142-3.014.268c-.077.006-.147.009-.216.009z" fill="#c4e4fd"></path><path d="m139.642 54.168a2.5 2.5 0 1 0 -2.87-2.069 2.5 2.5 0 0 0 2.87 2.069z"></path><path d="m40.272 161.878a2.544 2.544 0 0 0 -2.98 1.9 2.5 2.5 0 1 0 2.98-1.9z"></path><path d="m237.752 225.2a2.574 2.574 0 0 0 -3.521.37 2.5 2.5 0 1 0 3.521-.37z"></path><path d="m184.919 129.108v-98.008c0-.018 0-.037 0-.056s0-.035 0-.052c-.1-17.191-46.59-26.466-90.338-26.466-43.674-.005-90.076 9.241-90.326 26.374-.011.2-.006 167.3-.006 167.5 0 22.294 78.373 31.95 133.709 23.42a61.152 61.152 0 0 0 52.483 29.657h.01a61.2 61.2 0 0 0 40.46-15.261 2.5 2.5 0 0 0 .231-3.529 2.578 2.578 0 0 0 -3.531-.221 56.207 56.207 0 1 1 11.989-14.817 2.481 2.481 0 0 0 .96 3.4 2.555 2.555 0 0 0 3.4-.96 61.318 61.318 0 0 0 -59.043-90.98zm-90.34-119.587c50.292 0 85.34 11.342 85.34 21.521v.021c-.121 8.5-23.034 14.58-31.367 16.355a2.5 2.5 0 1 0 1.059 4.88c9.359-2.025 23.013-5.815 30.308-12.081v48.11c-.042 10.163-35.075 21.479-85.336 21.479-50.231 0-85.25-11.3-85.334-21.461v-48.164c16.262 14.039 62.389 17.347 85.332 17.358a303.019 303.019 0 0 0 35.051-1.97 2.5 2.5 0 0 0 -.59-4.97 296.6 296.6 0 0 1 -34.461 1.94h-.081c-49.936 0-84.983-11.311-85.253-21.424v-.073c.002-10.179 35.046-21.521 85.332-21.521zm-85.33 188.879v-43.642c5.193 4.466 13.553 7.554 20.093 9.491a2.5 2.5 0 0 0 1.41-4.8c-6.308-1.859-21.658-7.285-21.5-13.87 0-.01 0-.019 0-.029v-48.043c13.15 11.3 50.128 17.3 85.334 17.3s72.187-6 85.336-17.3v32.253a61.262 61.262 0 0 0 -45.093 34.613 288.86 288.86 0 0 1 -40.245 2.7 282.885 282.885 0 0 1 -44.609-3.351 2.5 2.5 0 0 0 -.811 4.931 287.134 287.134 0 0 0 45.42 3.42 299.615 299.615 0 0 0 38.067-2.346 61.392 61.392 0 0 0 2.724 47.43c-59.526 8.614-126.126-4.019-126.126-18.757z"></path><path d="m162.189 176.917a5.506 5.506 0 0 0 -5.5 5.5v15.5a5.506 5.506 0 0 0 5.5 5.5h56.5a5.507 5.507 0 0 0 5.5-5.5v-15.5a5.506 5.506 0 0 0 -5.5-5.5zm57 5.5v15.5a.5.5 0 0 1 -.5.5h-56.5a.5.5 0 0 1 -.5-.5v-15.5a.5.5 0 0 1 .5-.5h56.5a.5.5 0 0 1 .5.5z"></path></svg>