<!-- icon666.com - MILLIONS vector ICONS FREE --><svg id="Layer_1" viewBox="0 0 64 64" xmlns="http://www.w3.org/2000/svg" data-name="Layer 1"><path d="m46 18v44a1 1 0 0 1 -1 1h-26a1 1 0 0 1 -1-1v-13.375l7.538-5.489h-7.538v-25.136a1 1 0 0 1 1-1h26a1 1 0 0 1 1 1z" fill="#5a6c80"></path><path d="m45 17h-26a1 1 0 0 0 -1 1v25.14h2v-24.14h24v42h-24v-13.83l-2 1.45v13.38a1 1 0 0 0 1 1h26a1 1 0 0 0 1-1v-44a1 1 0 0 0 -1-1z" fill="#485666"></path><path d="m41 43.5-.986-3.285a2 2 0 1 0 -2.028 0l-.986 3.285z" fill="#f2f2f2"></path><g fill="#d9575d"><path d="m1 36h13v2h-13z"></path><path d="m47.691 8.6-1.567 1.241a17.944 17.944 0 0 1 1.094 1.543l1.691-1.069a20.039 20.039 0 0 0 -1.218-1.715z"></path><path d="m41.257 3.266-.927 1.773a17.562 17.562 0 0 1 1.629.961l1.109-1.664a19.867 19.867 0 0 0 -1.811-1.07z"></path><path d="m49.939 12.147-1.793.887a17.767 17.767 0 0 1 .748 1.738l1.877-.691a19.863 19.863 0 0 0 -.832-1.934z"></path><path d="m44.755 5.6-1.276 1.535a18.351 18.351 0 0 1 1.394 1.284l1.428-1.4a20.165 20.165 0 0 0 -1.546-1.419z"></path><path d="m33.2 1.036-.119 2a18.686 18.686 0 0 1 1.884.211l.322-1.974a20.368 20.368 0 0 0 -2.087-.237z"></path><path d="m37.347 1.724-.534 1.927a17.479 17.479 0 0 1 1.794.6l.737-1.859a19.741 19.741 0 0 0 -1.997-.668z"></path><path d="m51.393 16.092-1.939.488a18.421 18.421 0 0 1 .365 1.858l1.98-.282a19.961 19.961 0 0 0 -.406-2.064z"></path><path d="m50 24.287h2v2h-2z"></path><path d="m50 36.287h2v2h-2z"></path><path d="m50 32.287h2v2h-2z"></path><path d="m50 22.287h2v-1.287c0-.252 0-.5-.014-.75l-2 .074q.014.336.014.676z"></path><path d="m31.1 1.02a20.127 20.127 0 0 0 -2.092.2l.292 1.98a18.113 18.113 0 0 1 1.885-.182z"></path><path d="m15.256 10.059 1.673 1.1a18.049 18.049 0 0 1 1.119-1.527l-1.548-1.271a20.276 20.276 0 0 0 -1.244 1.698z"></path><path d="m12.246 17.856 1.975.313a18 18 0 0 1 .394-1.853l-1.932-.516a19.944 19.944 0 0 0 -.437 2.056z"></path><path d="m13.336 13.8 1.866.721a17.644 17.644 0 0 1 .775-1.728l-1.78-.914a19.948 19.948 0 0 0 -.861 1.921z"></path><path d="m50 28.287h2v2h-2z"></path><path d="m12 21v1h2v-1c0-.317.008-.634.024-.948l-2-.1c-.015.348-.024.695-.024 1.048z"></path><path d="m20.734 6.961-1.253-1.561a20.507 20.507 0 0 0 -1.569 1.4l1.409 1.42a18.032 18.032 0 0 1 1.413-1.259z"></path><path d="m12 28h2v2h-2z"></path><path d="m23.012 3.129a20.038 20.038 0 0 0 -1.825 1.043l1.082 1.682a18.129 18.129 0 0 1 1.644-.94z"></path><path d="m26.945 1.645a19.573 19.573 0 0 0 -2.006.637l.707 1.871a17.829 17.829 0 0 1 1.8-.573z"></path><path d="m12 32h2v2h-2z"></path><path d="m12 24h2v2h-2z"></path></g><path d="m26 42h-25v2h22l-9.207 6.905-2.13-2.788-2.356 7.412 7.772-.325-2.071-2.71 11.592-8.694a1 1 0 0 0 -.6-1.8z" fill="#8e9fb3"></path><path d="m62.872 41-6.372-4.46v3.46h-6.5v2h6.5v3.46z" fill="#d9575d"></path></svg>