<!-- icon666.com - MILLIONS vector ICONS FREE --><svg viewBox="0 0 512 512" xmlns="http://www.w3.org/2000/svg"><path d="m138.382812 276.765625c-76.304687 0-138.382812-62.078125-138.382812-138.382813 0-76.304687 62.078125-138.382812 138.382812-138.382812 76.304688 0 138.382813 62.078125 138.382813 138.382812 0 33.746094-12.285156 66.25-34.589844 91.523438l-51.105469 36.472656c-16.730468 6.890625-34.457031 10.386719-52.6875 10.386719zm0 0" fill="#fdbf00"></path><path d="m373.617188 276.765625c76.304687 0 138.382812-62.078125 138.382812-138.382813 0-76.304687-62.078125-138.382812-138.382812-138.382812-76.304688 0-138.382813 62.078125-138.382813 138.382812 0 33.746094 12.285156 66.25 34.589844 91.523438l51.105469 36.472656c16.730468 6.890625 34.457031 10.386719 52.6875 10.386719zm0 0" fill="#f6a313"></path><path d="m123.964844 90.074219h24.003906c.207031 0 .417969.003906.625.015625l1.109375-29.847656c-.578125-.023438-1.15625-.035157-1.734375-.035157h-24.003906c-25.15625 0-45.707032 20.054688-46.535156 45.015625h-16.691407v29.867188h16.652344v9.015625h-16.652344v29.867187h16.835938c2.03125 23.820313 22.054687 42.585938 46.390625 42.585938h25.199218v-29.867188h-25.199218c-7.832032 0-14.40625-5.429687-16.203125-12.71875h25.714843v-29.867187h-26.214843v-9.015625h25.828125v-29.867188h-25.75c.789062-8.484375 7.941406-15.148437 16.625-15.148437zm0 0" fill="#fc652c"></path><path d="m392.15625 157.371094v-9.425782h-11.21875c-.03125 1.117188-.078125 2.238282-.160156 3.359376-1.171875 16.054687-7.902344 30.054687-18.492188 41.53125v12.617187h29.867188v-18.214844h32.726562v-29.867187zm0 0" fill="#ed3a1b"></path><path d="m433.242188 79.050781-24.148438-17.578125-33.496094 46.035156c.117188.300782.21875.625.269532.984376.125.847656.242187 1.699218.355468 2.554687 3.1875 10.796875 5.601563 21.902344 5.800782 33.089844h43.917968v-29.871094h-18.324218zm0 0" fill="#ed3a1b"></path><path d="m255.199219 276.765625c-76.300781 0-138.378907-62.078125-138.378907-138.382813 0-76.304687 62.078126-138.382812 138.378907-138.382812 76.304687 0 138.382812 62.078125 138.382812 138.382812 0 33.746094-12.28125 66.25-34.585937 91.523438l-51.105469 36.472656c-16.730469 6.890625-34.457031 10.386719-52.691406 10.386719zm0 0" fill="#ffda2d"></path><path d="m256 .0117188v276.7460932c17.949219-.101562 35.40625-3.589843 51.890625-10.378906l51.105469-36.46875c22.304687-25.277344 34.585937-57.78125 34.585937-91.527344 0-76.039062-61.644531-137.941406-137.582031-138.3710932zm0 0" fill="#fdbf00"></path><path d="m258.050781 123.019531h-5.699219c-6.363281 0-11.535156-5.34375-11.535156-11.910156s5.171875-11.910156 11.535156-11.910156h5.699219c6.363281 0 11.539063 5.34375 11.539063 11.910156h29.867187c0-18.796875-12.367187-34.726563-29.320312-39.957031v-19.300782h-29.867188v19.300782c-16.957031 5.230468-29.324219 21.160156-29.324219 39.957031 0 23.035156 18.574219 41.777344 41.40625 41.777344h5.699219c6.363281 0 11.539063 5.34375 11.539063 11.910156s-5.175782 11.90625-11.539063 11.90625h-5.699219c-6.363281 0-11.535156-5.339844-11.535156-11.90625h-29.871094c0 18.796875 12.367188 34.726563 29.324219 39.957031v19.300782h29.867188v-19.300782c16.953125-5.230468 29.320312-21.160156 29.320312-39.957031 0-23.035156-18.574219-41.777344-41.40625-41.777344zm0 0" fill="#fc652c"></path><path d="m256 51.851562v47.347657h2.050781c6.363281 0 11.539063 5.34375 11.539063 11.910156h29.867187c0-18.796875-12.367187-34.726563-29.320312-39.957031v-19.300782zm0 0" fill="#ed3a1b"></path><path d="m258.050781 123.019531h-2.050781v29.867188h2.050781c6.363281 0 11.539063 5.34375 11.539063 11.910156s-5.175782 11.90625-11.539063 11.90625h-2.050781v47.351563h14.136719v-19.300782c16.953125-5.230468 29.320312-21.164062 29.320312-39.957031 0-23.035156-18.574219-41.777344-41.40625-41.777344zm0 0" fill="#ed3a1b"></path><path d="m431.070312 266.652344c-2.894531 0-5.707031.335937-8.414062.957031-3.039062-17.777344-18.550781-31.355469-37.179688-31.355469-4.800781 0-9.386718.910156-13.613281 2.550782-6.675781-10.648438-18.511719-17.746094-31.984375-17.746094-2.695312 0-5.324218.289062-7.863281.828125v-39.226563c0-20.804687-16.925781-37.730468-37.730469-37.730468-20.804687 0-37.730468 16.925781-37.730468 37.730468v122.734375l-.183594-.175781c-6.226563-6.0625-14.445313-9.449219-23.136719-9.542969-.121094-.003906-.238281-.003906-.355469-.003906-10.742187 0-20.902344 5.164063-27.234375 13.859375-6.402343 8.792969-8.164062 20.199219-4.710937 30.511719l12.960937 38.746093c7.011719 20.953126 18.226563 39.757813 33.335938 55.882813l29.078125 31.046875v46.28125h153.128906v-44.9375l39.363281-69.53125v-93.148438c0-20.804687-16.925781-37.730468-37.730469-37.730468zm0 0" fill="#ffdfcf"></path><path d="m256.390625 305.234375-.019531-.015625c-6.226563-6.0625-14.445313-9.449219-23.136719-9.542969-.121094-.003906-.238281-.003906-.355469-.003906-10.742187 0-20.902344 5.164063-27.234375 13.859375-6.402343 8.792969-8.164062 20.199219-4.710937 30.511719l12.960937 38.746093c7.011719 20.953126 18.226563 39.757813 33.335938 55.882813l9.160156 9.78125zm0 0" fill="#ffcebf"></path></svg>