<!-- icon666.com - MILLIONS vector ICONS FREE --><svg id="Capa_1" enable-background="new 0 0 512 512" viewBox="0 0 512 512" xmlns="http://www.w3.org/2000/svg"><g><g><path d="m378.171 466.833-20.57-71.997h-101.601l-10.667 34.264 10.667 37.733z" fill="#a7a7c1"></path><path d="m133.828 466.833h122.172v-71.997h-101.601z" fill="#bcbcd0"></path></g><g><path d="m405.333 452.167h-149.333l-10.667 17.166 10.667 12.834h149.333z" fill="#e2e2ea"></path><path d="m106.667 452.167h149.333v30h-149.333z" fill="#f4f4f6"></path></g><g><path d="m497 44.833h-241l-10.667 168.5 10.667 179.167h241z" fill="#0dca71"></path><path d="m15 44.833h241v347.667h-241z" fill="#00ec89"></path></g><g><path d="m256 29.833-10.667 12.835 10.667 17.165h226v317.667h-226l-10.667 17.167 10.667 12.833h256v-377.667z" fill="#e2e2ea"></path><path d="m30 377.5v-317.667h226v-30h-256v377.667h256v-30z" fill="#f4f4f6"></path></g><path d="m319.838 290.696h-30v-114.059h-24.378v-30h54.378z" fill="#28485e"></path><path d="m198.557 293.024c-26.458 0-47.983-21.525-47.983-47.983v-52.748c0-26.458 21.525-47.983 47.983-47.983s47.983 21.525 47.983 47.983v52.748c.001 26.458-21.525 47.983-47.983 47.983zm0-118.714c-9.916 0-17.983 8.067-17.983 17.983v52.748c0 9.916 8.067 17.983 17.983 17.983s17.983-8.067 17.983-17.983v-52.748c.001-9.916-8.067-17.983-17.983-17.983z" fill="#36607d"></path><path d="m119.345 290.696h-30v-114.059h-24.379v-30h54.379z" fill="#36607d"></path><path d="m399.051 293.024c-26.458 0-47.983-21.525-47.983-47.983v-52.748c0-26.458 21.525-47.983 47.983-47.983s47.983 21.525 47.983 47.983v52.748c0 26.458-21.525 47.983-47.983 47.983zm0-118.714c-9.916 0-17.983 8.067-17.983 17.983v52.748c0 9.916 8.067 17.983 17.983 17.983s17.983-8.067 17.983-17.983v-52.748c0-9.916-8.067-17.983-17.983-17.983z" fill="#28485e"></path></g></svg>