<!-- icon666.com - MILLIONS vector ICONS FREE --><svg id="Layer_1" enable-background="new 0 0 66 66" viewBox="0 0 66 66" xmlns="http://www.w3.org/2000/svg"><g><g><path d="m52.72 14.12c-.55 0-1-.45-1-1v-8.89c0-.55.45-1 1-1s1 .45 1 1v8.89c0 .56-.45 1-1 1z" fill="#aab2bd"></path></g><path d="m63 17.06h-20.57c-.55 0-1 .45-1 1v14.21h5.04c.55 0 1 .45 1 1v29.5h16.53v-44.71c0-.56-.45-1-1-1z" fill="#aab2bd"></path><path d="m46.48 32.26h-15.46c-.55 0-1 .45-1 1v29.5h17.46v-29.5c0-.55-.45-1-1-1z" fill="#e6e9ee"></path><path d="m36.73 34.04h4.04v8.97h-4.04z" fill="#009aff" transform="matrix(0 1 -1 0 77.277 -.22)"></path><path d="m36.73 42.16h4.04v8.97h-4.04z" fill="#009aff" transform="matrix(0 1 -1 0 85.396 7.9)"></path><path d="m35.76 47.28v-2.65h-1.5v4.04h8.97v-1.39z" opacity=".1"></path><path d="m34.16 54.89h4.59v7.88h-4.59z" fill="#aab2bd"></path><path d="m36.2 60.72v-5.83h-2.04v7.88h4.59v-2.05z" opacity=".1"></path><path d="m38.75 54.89h4.59v7.88h-4.59z" fill="#aab2bd"></path><path d="m49.96 22.2h-4.31c-.28 0-.5.22-.5.5v4.3c0 .28.22.5.5.5h4.31c.28 0 .5-.22.5-.5v-4.3c0-.28-.23-.5-.5-.5z" fill="#5d5b68"></path><path d="m47.34 25.81c-.28 0-.5-.22-.5-.5v-3.11h-1.19c-.28 0-.5.22-.5.5v4.3c0 .28.22.5.5.5h4.31c.28 0 .5-.22.5-.5v-1.19z" opacity=".15"></path><g fill="#5d5b68"><path d="m59.79 22.2h-4.31c-.28 0-.5.22-.5.5v4.3c0 .28.22.5.5.5h4.31c.28 0 .5-.22.5-.5v-4.3c0-.28-.23-.5-.5-.5z"></path><path d="m59.79 32.24h-4.31c-.28 0-.5.22-.5.5v4.31c0 .28.22.5.5.5h4.31c.28 0 .5-.22.5-.5v-4.31c0-.28-.23-.5-.5-.5z"></path><path d="m59.79 42.28h-4.31c-.28 0-.5.22-.5.5v4.31c0 .28.22.5.5.5h4.31c.28 0 .5-.22.5-.5v-4.31c0-.28-.23-.5-.5-.5z"></path><path d="m59.79 52.32h-4.31c-.28 0-.5.22-.5.5v4.31c0 .28.22.5.5.5h4.31c.28 0 .5-.22.5-.5v-4.31c0-.28-.23-.5-.5-.5z"></path><path d="m58.16 13.12h-10.89c-.55 0-1 .45-1 1v2.93h12.89v-2.93c0-.55-.45-1-1-1z"></path><path d="m22.52 26.78s-1.88 4.71.53 7.5 1.72-.37 1.72-.37 2.38-5.99-2.25-7.13z"></path><path d="m22.52 26.78s-.2 1.47-1.5 2.06c-2.32 1.05-6.75 1.32-9.93-.1 0 0-1.53-.43-1.51 2.59.01.8-.11 1.62-.37 2.38-.29.83-.75 1.67-1.44 1.71-1.39.08-3.11-11.55 5.49-12.95s9.26 4.31 9.26 4.31z"></path></g><path d="m21.47 24.5c.04.17.05.27.05.27s-.2 1.47-1.5 2.06c-2.32 1.05-6.75 1.32-9.93-.1 0 0-1.53-.43-1.51 2.59.01.8-.11 1.62-.37 2.38-.28.82-.74 1.65-1.42 1.71.22 1.22.61 2.03.98 2.01.7-.04 1.16-.88 1.44-1.71.26-.76.37-1.57.37-2.38-.02-3.02 1.51-2.59 1.51-2.59 3.18 1.42 7.61 1.15 9.93.1 1.3-.59 1.5-2.06 1.5-2.06s-.13-1.14-1.05-2.28z" opacity=".1"></path><path d="m25.16 35.17h-.36c-.14.41-.58.46-1.75-.89-1.8-2.07-1.22-5.2-.8-6.68-.21.44-.59.95-1.23 1.24-2.32 1.05-6.75 1.32-9.93-.1 0 0-1.53-.43-1.51 2.59.01.8-.11 1.62-.37 2.38-.29.83-.75 1.67-1.44 1.71-.13.01-.26-.08-.38-.25h-.53c-.87.25-1.22 1.65-.8 3.13s1.47 2.49 2.33 2.24c.24-.07.43-.23.59-.45 1.46 3.4 4.06 6.46 7.03 6.46s5.57-3.06 7.03-6.46c.16.22.35.38.59.45.87.25 1.91-.75 2.33-2.24.43-1.48.07-2.89-.8-3.13z" fill="#e5d3b3"></path><path d="m22.5 48.28h-2l.21.54c.14.36.04.77-.26 1.02-2.55 2.18-6.32 2.18-8.87 0-.29-.25-.4-.66-.26-1.02l.21-.54h-2c-4.16 0-7.53 3.37-7.53 7.52v6.96h28.02v-6.96c0-4.15-3.37-7.52-7.52-7.52z" fill="#ff4823"></path><path d="m14.07 59.76c-5.27 0-9.35-4.79-8.32-9.95.06-.29.12-.5.18-.61-2.35 1.27-3.93 3.75-3.93 6.6v6.96h28.02v-3z" opacity=".1"></path><path d="m19.32 45.26c-1.01.79-2.13 1.28-3.31 1.28s-2.3-.49-3.31-1.28l-1.38 3.56c-.14.36-.04.77.26 1.02 2.55 2.18 6.32 2.18 8.87 0 .29-.25.4-.66.26-1.02z" fill="#e5d3b3"></path><path d="m17.01 47.54c1 0 1.95-.35 2.83-.94l-.52-1.35c-1.01.79-2.13 1.28-3.31 1.28s-2.3-.49-3.31-1.28l-.02.06c1.26 1.35 2.74 2.23 4.33 2.23z" opacity=".1"></path><g fill="#5d5b68"><circle cx="13.57" cy="36.01" r="1.06"></circle><circle cx="18.45" cy="36.01" r="1.06"></circle></g><g><path d="m16.01 42.62c-.92 0-1.85-.35-2.55-1.06-.39-.39-.39-1.02 0-1.41s1.02-.39 1.41 0c.63.63 1.65.63 2.28 0 .39-.39 1.02-.39 1.41 0s.39 1.02 0 1.41c-.7.71-1.63 1.06-2.55 1.06z" fill="#fff"></path></g><g opacity=".1"><path d="m8.58 56.63c-.55 0-1 .45-1 1v5.13h2v-5.13c0-.55-.44-1-1-1z"></path><path d="m23.44 56.63c-.55 0-1 .45-1 1v5.13h2v-5.13c0-.55-.45-1-1-1z"></path></g><path d="m35.76 39.16v-2.65h-1.5v4.04h8.97v-1.39z" opacity=".1"></path><path d="m40.79 60.72v-5.83h-2.04v7.88h4.59v-2.05z" opacity=".1"></path><path d="m32.31 44.18v-11.92h-1.29c-.55 0-1 .45-1 1v29.5h17.46v-3.43c-8.38.01-15.17-6.78-15.17-15.15z" opacity=".1"></path><path d="m57.17 25.81c-.28 0-.5-.22-.5-.5v-3.11h-1.19c-.28 0-.5.22-.5.5v4.3c0 .28.22.5.5.5h4.31c.28 0 .5-.22.5-.5v-1.19z" opacity=".15"></path><path d="m57.17 35.85c-.28 0-.5-.22-.5-.5v-3.12h-1.19c-.28 0-.5.22-.5.5v4.31c0 .28.22.5.5.5h4.31c.28 0 .5-.22.5-.5v-1.19z" opacity=".15"></path><path d="m57.17 45.89c-.28 0-.5-.22-.5-.5v-3.12h-1.19c-.28 0-.5.22-.5.5v4.31c0 .28.22.5.5.5h4.31c.28 0 .5-.22.5-.5v-1.19z" opacity=".15"></path><path d="m57.17 55.94c-.28 0-.5-.22-.5-.5v-3.12h-1.19c-.28 0-.5.22-.5.5v4.31c0 .28.22.5.5.5h4.31c.28 0 .5-.22.5-.5v-1.19z" opacity=".15"></path><path d="m50.48 62.77v-29.5c0-2.21-1.79-4-4-4h-5.04v3h5.04c.55 0 1 .45 1 1v29.5z" opacity=".1"></path></g></svg>