<!-- icon666.com - MILLIONS vector ICONS FREE --><svg id="Capa_1" enable-background="new 0 0 512 512" viewBox="0 0 512 512" xmlns="http://www.w3.org/2000/svg"><path d="m364.902 337.787h-217.804c-67.931 0-123 55.069-123 123v41.259c0 5.498 4.457 9.954 9.954 9.954h443.895c5.498 0 9.954-4.457 9.954-9.954v-41.259c.001-67.931-55.068-123-122.999-123z" fill="#ded0cb"></path><path d="m364.902 337.787h-97.841c71.744 0 129.904 58.16 129.904 129.905v33.892c0 5.752-4.663 10.416-10.416 10.416h90.936c5.753 0 10.416-4.663 10.416-10.416v-40.797c.001-67.931-55.068-123-122.999-123z" fill="#b8abab"></path><path d="m292.917 363.651h-73.834c-19.33 0-35-15.67-35-35v-39.587h143.834v39.587c0 19.33-15.67 35-35 35z" fill="#efada0"></path><path d="m301.846 289.064v38.083c0 20.161-16.343 36.504-36.504 36.504h27.575c19.33 0 35-15.67 35-35v-39.587z" fill="#e79b8b"></path><path d="m311.69 0h-145.536c-5.989 0-10.844 4.855-10.844 10.844v109.191h201.38v-75.035c0-24.853-20.148-45-45-45z" fill="#a95e2c"></path><path d="m311.69 0h-30.342c26.096 0 47.25 21.155 47.25 47.25v72.784h28.092v-75.034c0-24.853-20.148-45-45-45z" fill="#8f4e24"></path><path d="m169.036 156.013c2.475 19.144-6.582 42.824-20.064 44.567s-26.283-19.111-28.758-38.255 7.733-26.13 21.215-27.873 25.132 2.417 27.607 21.561z" fill="#efada0"></path><path d="m169.036 156.013c-2.475-19.144-14.125-23.304-27.607-21.561-2.052.265-4.026.654-5.893 1.187 6.688 2.581 11.63 8.677 13.142 20.374 1.921 14.86-3.109 32.449-11.761 40.393 3.762 3.08 7.875 4.715 12.055 4.174 13.482-1.743 22.539-25.424 20.064-44.567z" fill="#e79b8b"></path><path d="m342.964 156.013c-2.475 19.144 6.582 42.824 20.064 44.567s26.283-19.111 28.758-38.255-7.733-26.13-21.215-27.873-25.131 2.417-27.607 21.561z" fill="#efada0"></path><path d="m378.53 136.308c1.121 3.63 1.44 8.076.739 13.5-2.475 19.143-15.276 39.998-28.758 38.255-.754-.097-1.491-.273-2.216-.503 3.62 7.126 8.738 12.246 14.734 13.021 13.482 1.743 26.283-19.111 28.758-38.255 1.955-15.13-4.014-22.663-13.257-26.018z" fill="#e79b8b"></path><path d="m290.69 286.732h-69.38c-36.451 0-66-29.549-66-66v-102.927c0-20.359 16.505-36.864 36.864-36.864h127.516c20.435 0 37 16.565 37 37v102.791c0 36.45-29.55 66-66 66z" fill="#efada0"></path><path d="m319.69 80.941h-29.665c21.303 0 38.573 17.27 38.573 38.573v97.573c0 38.464-31.181 69.645-69.645 69.645h31.737c36.451 0 66-29.549 66-66v-102.791c0-20.435-16.566-37-37-37z" fill="#e79b8b"></path><circle cx="210.468" cy="144.623" fill="#5a3535" r="14.199"></circle><circle cx="302.375" cy="144.623" fill="#5a3535" r="14.199"></circle><path d="m327.991 203.78v6.175c0 21.368-17.322 38.691-38.691 38.691h-65.757c-21.368 0-38.691-17.322-38.691-38.691v-6.175c0-12.642-10.249-22.891-22.891-22.891h-6.651v41.999c0 55.609 45.08 100.689 100.689 100.689 55.609 0 100.69-45.08 100.69-100.689v-41.999h-5.808c-12.642-.001-22.89 10.248-22.89 22.891z" fill="#a95e2c"></path><path d="m350.882 180.888c-12.642 0-22.891 10.249-22.891 22.891v6.175c0 13.282-6.695 24.998-16.893 31.965-7.536 39.385-38.011 70.619-76.992 79.263 7.049 1.563 14.374 2.394 21.894 2.394 55.609 0 100.689-45.08 100.689-100.689v-41.999z" fill="#8f4e24"></path><path d="m302.498 199.452c-1.528.22-3.09.336-4.679.336-8.252 0-15.791-3.047-21.557-8.075-3.97-3.462-9.619-4.227-14.36-1.933-2.704 1.308-4.671 3.324-5.901 5.656-1.23-2.333-3.197-4.348-5.901-5.656-4.742-2.294-10.391-1.529-14.36 1.933-5.766 5.029-13.305 8.075-21.557 8.075-1.589 0-3.151-.116-4.679-.336-1.246-.18-2.113 1.2-1.431 2.258 5.841 9.061 16.016 15.064 27.598 15.064 5.288 0 10.283-1.251 14.706-3.474 2.572-1.293 4.44-3.227 5.624-5.455 1.184 2.228 3.052 4.163 5.624 5.455 4.423 2.222 9.418 3.474 14.706 3.474 11.582 0 21.757-6.003 27.598-15.064.682-1.058-.185-2.438-1.431-2.258z" fill="#a95e2c"></path><path d="m302.498 199.452c-1.528.22-3.09.336-4.679.336-2.395 0-4.728-.264-6.977-.752-5.965 8.214-15.635 13.56-26.562 13.56-1.464 0-2.902-.105-4.315-.291.518.361 1.068.696 1.66.994 4.423 2.222 9.418 3.474 14.706 3.474 11.582 0 21.757-6.003 27.598-15.064.682-1.057-.185-2.437-1.431-2.257z" fill="#8f4e24"></path><path d="m359.539 344.379-12.34-18.193c-2.005-2.955-5.848-4.034-9.098-2.554l-82.101 37.394-82.102-37.394c-3.25-1.48-7.093-.401-9.098 2.554l-12.34 18.193c-2.115 3.118-1.519 7.333 1.377 9.743l60.2 50.08c9.198 7.652 23.121 4.78 28.54-5.888l12.834-25.265c.244-.48.93-.48 1.174 0l12.834 25.265c5.419 10.668 19.342 13.54 28.54 5.888l60.2-50.08c2.9-2.411 3.495-6.625 1.38-9.743z" fill="#f9f5f5"></path><path d="m359.539 344.379-12.34-18.193c-2.004-2.955-5.848-4.034-9.098-2.554l-13.329 6.071 9.954 14.676c2.115 3.118 1.519 7.333-1.377 9.743l-59.71 49.672c6.635 5.912 16.981 6.515 24.322.408l60.2-50.08c2.898-2.411 3.493-6.625 1.378-9.743z" fill="#f2e7e4"></path></svg>