<!-- icon666.com - MILLIONS vector ICONS FREE --><svg id="Layer_3" enable-background="new 0 0 64 64" viewBox="0 0 64 64" xmlns="http://www.w3.org/2000/svg"><g><g><path d="m38 7v50c0 2.761-2.239 5-5 5h-22c-2.761 0-5-2.239-5-5v-50c0-2.761 2.239-5 5-5h22c2.761 0 5 2.239 5 5z" fill="#4d4d4d"></path></g><g><path d="m6 10h32v42h-32z" fill="#ade2f5"></path></g><g><path d="m6 42.324c2.706 1.708 5.762 2.676 9 2.676 11.046 0 20-11.193 20-25 0-3.557-.598-6.937-1.669-10h-27.331z" fill="#d5fbfe"></path></g><g><circle cx="26" cy="40" fill="#4e4a40" r="8"></circle></g><g><circle cx="26" cy="40" fill="#fff" r="4"></circle></g><g><g><path d="m26 36c.732 0 1.41.211 2 .555v-4.293c-.64-.165-1.308-.262-2-.262s-1.36.097-2 .262v4.293c.59-.344 1.268-.555 2-.555z" fill="#e7e4dd"></path></g><g><path d="m26 44c-.732 0-1.41-.211-2-.555v4.293c.64.165 1.308.262 2 .262s1.36-.097 2-.262v-4.293c-.59.344-1.268.555-2 .555z" fill="#e7e4dd"></path></g></g><g><g><path d="m22 40c0-.732.211-1.41.555-2h-4.293c-.165.64-.262 1.308-.262 2s.097 1.36.262 2h4.293c-.344-.59-.555-1.268-.555-2z" fill="#e7e4dd"></path></g><g><path d="m30 40c0 .732-.211 1.41-.555 2h4.293c.165-.64.262-1.308.262-2s-.097-1.36-.262-2h-4.293c.344.59.555 1.268.555 2z" fill="#e7e4dd"></path></g></g><g><circle cx="50" cy="40" fill="#4e4a40" r="8"></circle></g><g><circle cx="50" cy="40" fill="#fff" r="4"></circle></g><g><g><path d="m50 36c.732 0 1.41.211 2 .555v-4.293c-.64-.165-1.308-.262-2-.262s-1.36.097-2 .262v4.293c.59-.344 1.268-.555 2-.555z" fill="#e7e4dd"></path></g><g><path d="m50 44c-.732 0-1.41-.211-2-.555v4.293c.64.165 1.308.262 2 .262s1.36-.097 2-.262v-4.293c-.59.344-1.268.555-2 .555z" fill="#e7e4dd"></path></g></g><g><g><path d="m46 40c0-.732.211-1.41.555-2h-4.293c-.165.64-.262 1.308-.262 2s.097 1.36.262 2h4.293c-.344-.59-.555-1.268-.555-2z" fill="#e7e4dd"></path></g><g><path d="m54 40c0 .732-.211 1.41-.555 2h4.293c.165-.64.262-1.308.262-2s-.097-1.36-.262-2h-4.293c.344.59.555 1.268.555 2z" fill="#e7e4dd"></path></g></g><g><circle cx="38" cy="22" fill="#4e4a40" r="8"></circle></g><g><circle cx="38" cy="22" fill="#fff" r="4"></circle></g><g><g><path d="m38 18c.732 0 1.41.211 2 .555v-4.293c-.64-.165-1.308-.262-2-.262s-1.36.097-2 .262v4.293c.59-.344 1.268-.555 2-.555z" fill="#e7e4dd"></path></g><g><path d="m38 26c-.732 0-1.41-.211-2-.555v4.293c.64.165 1.308.262 2 .262s1.36-.097 2-.262v-4.293c-.59.344-1.268.555-2 .555z" fill="#e7e4dd"></path></g></g><g><g><path d="m34 22c0-.732.211-1.41.555-2h-4.293c-.165.64-.262 1.308-.262 2s.097 1.36.262 2h4.293c-.344-.59-.555-1.268-.555-2z" fill="#e7e4dd"></path></g><g><path d="m42 22c0 .732-.211 1.41-.555 2h4.293c.165-.64.262-1.308.262-2s-.097-1.36-.262-2h-4.293c.344.59.555 1.268.555 2z" fill="#e7e4dd"></path></g></g><g><path d="m33 63h-22c-3.309 0-6-2.691-6-6v-50c0-3.309 2.691-6 6-6h22c3.309 0 6 2.691 6 6v7h-2v-7c0-2.206-1.794-4-4-4h-22c-2.206 0-4 1.794-4 4v50c0 2.206 1.794 4 4 4h22c2.206 0 4-1.794 4-4v-27h2v27c0 3.309-2.691 6-6 6z"></path></g><g><path d="m6 9h32v2h-32z"></path></g><g><path d="m18 5h8v2h-8z"></path></g><g><path d="m26 49c-4.963 0-9-4.038-9-9s4.037-9 9-9 9 4.038 9 9-4.037 9-9 9zm0-16c-3.859 0-7 3.14-7 7s3.141 7 7 7 7-3.14 7-7-3.141-7-7-7z"></path></g><g><path d="m26 45c-2.757 0-5-2.243-5-5s2.243-5 5-5 5 2.243 5 5-2.243 5-5 5zm0-8c-1.654 0-3 1.346-3 3s1.346 3 3 3 3-1.346 3-3-1.346-3-3-3z"></path></g><g><path d="m23 32h2v5h-2z"></path></g><g><path d="m27 32h2v5h-2z"></path></g><g><path d="m23 43h2v5h-2z"></path></g><g><path d="m27 43h2v5h-2z"></path></g><g><path d="m29 41h5v2h-5z"></path></g><g><path d="m29 37h5v2h-5z"></path></g><g><path d="m18 41h5v2h-5z"></path></g><g><path d="m18 37h5v2h-5z"></path></g><g><path d="m38 31c-4.963 0-9-4.038-9-9s4.037-9 9-9 9 4.038 9 9-4.037 9-9 9zm0-16c-3.859 0-7 3.14-7 7s3.141 7 7 7 7-3.14 7-7-3.141-7-7-7z"></path></g><g><path d="m38 27c-2.757 0-5-2.243-5-5s2.243-5 5-5 5 2.243 5 5-2.243 5-5 5zm0-8c-1.654 0-3 1.346-3 3s1.346 3 3 3 3-1.346 3-3-1.346-3-3-3z"></path></g><g><path d="m35 14h2v5h-2z"></path></g><g><path d="m39 14h2v5h-2z"></path></g><g><path d="m35 25h2v5h-2z"></path></g><g><path d="m39 25h2v5h-2z"></path></g><g><path d="m41 23h5v2h-5z"></path></g><g><path d="m41 19h5v2h-5z"></path></g><g><path d="m30 23h5v2h-5z"></path></g><g><path d="m30 19h5v2h-5z"></path></g><g><path d="m50 49c-4.963 0-9-4.038-9-9s4.037-9 9-9 9 4.038 9 9-4.037 9-9 9zm0-16c-3.859 0-7 3.14-7 7s3.141 7 7 7 7-3.14 7-7-3.141-7-7-7z"></path></g><g><path d="m50 45c-2.757 0-5-2.243-5-5s2.243-5 5-5 5 2.243 5 5-2.243 5-5 5zm0-8c-1.654 0-3 1.346-3 3s1.346 3 3 3 3-1.346 3-3-1.346-3-3-3z"></path></g><g><path d="m47 32h2v5h-2z"></path></g><g><path d="m51 32h2v5h-2z"></path></g><g><path d="m51 43h2v5h-2z"></path></g><g><path d="m47 43h2v5h-2z"></path></g><g><path d="m53 41h5v2h-5z"></path></g><g><path d="m53 37h5v2h-5z"></path></g><g><path d="m42 41h5v2h-5z"></path></g><g><path d="m42 37h5v2h-5z"></path></g><g><path d="m6 51h32v2h-32z"></path></g><g><path d="m22 59c-1.103 0-2-.897-2-2s.897-2 2-2 2 .897 2 2-.897 2-2 2zm0-2.001v.001z"></path></g></g></svg>