<!-- icon666.com - MILLIONS vector ICONS FREE --><svg enable-background="new 0 0 64 64" viewBox="0 0 64 64" xmlns="http://www.w3.org/2000/svg"><g id="Layer_4"><g><g><g><path d="m32.6 63h-25.5c-2.3 0-4.1-1.8-4.1-4.1v-53.8c0-2.3 1.8-4.1 4.1-4.1h25.5c2.3 0 4.1 1.8 4.1 4.1v53.8c0 2.3-1.8 4.1-4.1 4.1z" fill="#505566"></path></g><g><path d="m31.1 4.3h-2.7c-.5 0-1 .5-1 1 0 .6-.4 1-1 1h-13.1c-.5 0-1-.5-1-1 0-.6-.4-1-1-1h-2.7c-1.3 0-2.3 1.1-2.3 2.4v50.6c0 1.3 1 2.4 2.3 2.4h22.5c1.3 0 2.3-1.1 2.3-2.4v-50.6c0-1.3-1-2.4-2.3-2.4z" fill="#3e94ff"></path></g></g><g><path d="m42.4 13c-10.3 0-18.6 8.3-18.6 18.6 0 5.8 2.7 11 6.9 14.5-.1 1.6-.6 3.3-1.8 4.9 0 0 3.3-.4 6.4-2.2 2.2.9 4.6 1.4 7.1 1.4 10.3 0 18.6-8.3 18.6-18.6s-8.3-18.6-18.6-18.6z" fill="#ffc04a"></path></g><g><circle cx="42.4" cy="31.6" fill="#ef4f41" r="14.7"></circle></g><g><g><g><path d="m40.6 22.3h3.6v1.4c2.3.6 3.9 1.9 4.2 4.4-1 0-2 0-3 0-.9-1.8-2.2-2.4-4-1.8-.4.1-.8.4-1.1.7-.7.7-.5 1.9.4 2.3.7.4 1.6.5 2.4.8.9.3 1.9.4 2.8.7 1.6.5 2.6 1.6 2.8 3.3.2 1.8-.3 3.3-1.9 4.3-.6.4-1.4.7-2.1.9-.3.1-.5.2-.4.6v1c-1.2 0-2.4 0-3.6 0 0-.9 0-.4 0-1.4-2.4-.6-4.2-1.8-4.4-4.5h3.1c.8 2 3.6 2.7 5.4 1.4 1.1-.8 1-2.2-.2-2.7-1.1-.4-2.2-.6-3.3-.9-.6-.2-1.2-.3-1.8-.5-1.5-.6-2.5-1.6-2.7-3.3-.2-1.8.3-3.3 1.9-4.4.6-.4 1.3-.7 2.1-1-.2-.8-.2-.3-.2-1.3z" fill="#efefef"></path></g></g></g><g><path d="m16.3 56.5c-1.8 0-3.2 1.4-3.2 3.2h18c1.3 0 2.3-1.1 2.3-2.4v-.8z" fill="#2f8de0"></path></g></g></g><g id="Layer_1" display="none"><path d="m3 3h58v58h-58z" style="display:inline;fill:none;stroke:#ff6700;stroke-width:.25;stroke-linecap:round;stroke-linejoin:round;stroke-miterlimit:10"></path></g></svg>