<!-- icon666.com - MILLIONS vector ICONS FREE --><svg id="Layer_1" enable-background="new 0 0 512 512" viewBox="0 0 512 512" xmlns="http://www.w3.org/2000/svg" xmlns:xlink="http://www.w3.org/1999/xlink"><linearGradient id="SVGID_1_" gradientUnits="userSpaceOnUse" x1="111.225" x2="384.242" y1="489.782" y2="16.903"><stop offset="0" stop-color="#fcc60e"></stop><stop offset="1" stop-color="#e92e29"></stop></linearGradient><path d="m439.75 108.001c0 30.124-12.795 58.405-36.028 79.634-1.535 1.401-3.467 2.094-5.394 2.094-2.169 0-4.33-.877-5.908-2.604-2.98-3.262-2.752-8.322.509-11.303 19.875-18.16 30.821-42.246 30.821-67.821 0-25.574-10.946-49.66-30.821-67.82-3.262-2.98-3.49-8.041-.509-11.303 2.98-3.261 8.04-3.491 11.302-.51 23.234 21.229 36.028 49.51 36.028 79.633zm-56.936.001c0 15.848-6.375 31.095-17.953 42.933-3.089 3.159-3.032 8.225.126 11.313 1.557 1.522 3.575 2.28 5.593 2.28 2.077 0 4.153-.805 5.72-2.406 14.518-14.847 22.513-34.066 22.513-54.12 0-20.15-8.051-39.453-22.67-54.352-3.094-3.153-8.159-3.202-11.313-.107-3.153 3.094-3.202 8.159-.107 11.312 11.667 11.89 18.091 27.212 18.091 43.147zm-294.564-.001c0-25.574 10.946-49.66 30.821-67.82 3.262-2.98 3.49-8.041.509-11.303-2.98-3.261-8.04-3.489-11.302-.51-23.234 21.229-36.028 49.51-36.028 79.633 0 30.124 12.795 58.405 36.028 79.634 1.535 1.402 3.467 2.094 5.394 2.094 2.168 0 4.33-.877 5.908-2.604 2.98-3.262 2.752-8.322-.509-11.303-19.876-18.16-30.821-42.246-30.821-67.821zm47.449 54.12c1.567 1.604 3.643 2.407 5.72 2.407 2.017 0 4.037-.759 5.593-2.28 3.159-3.089 3.215-8.154.126-11.312-11.577-11.839-17.952-27.086-17.952-42.934 0-15.935 6.424-31.257 18.09-43.146 3.095-3.153 3.046-8.219-.107-11.312-3.154-3.095-8.219-3.046-11.313.107-14.619 14.898-22.67 34.201-22.67 54.352 0 20.053 7.995 39.272 22.513 54.118zm245.961 331.553c.737 2.424.282 5.055-1.228 7.09-1.509 2.036-3.893 3.236-6.427 3.236h-24.125c-3.522 0-6.63-2.304-7.654-5.674l-18.326-60.292-67.988-47.781-67.763 47.623-18.374 60.45c-1.024 3.37-4.132 5.674-7.654 5.674h-24.126c-2.534 0-4.918-1.2-6.427-3.236-1.509-2.035-1.964-4.666-1.228-7.09l88.951-292.65c-37.032-14.665-63.292-50.834-63.292-93.022 0-55.142 44.86-100.002 100.001-100.002s100.001 44.86 100.001 100.002c0 42.188-26.26 78.356-63.292 93.022zm-98.206-328.005c-6.313-1.213-12.848-2.002-19.454-2.35v22.891c7.521-5.945 14.047-12.867 19.454-20.541zm4.468 20.016c7.481-3.085 14.417-7.221 20.634-12.222-2.795-1.279-5.721-2.432-8.743-3.474-3.496 5.547-7.464 10.802-11.891 15.696zm4.052-34.636c5.118-10.84 8.281-22.679 9.239-35.047h-37.213v31.23c9.746.457 19.143 1.747 27.974 3.817zm9.239-51.047c-.958-12.367-4.12-24.207-9.239-35.047-8.832 2.069-18.228 3.36-27.975 3.817v31.23zm-17.759-49.668c-5.407-7.674-11.933-14.596-19.454-20.541v22.89c6.606-.348 13.14-1.136 19.454-2.349zm16.359-4.319c3.023-1.042 5.948-2.195 8.743-3.474-6.217-5.001-13.153-9.137-20.634-12.223 4.427 4.894 8.395 10.149 11.891 15.697zm-71.268 4.318c6.314 1.213 12.848 2.002 19.454 2.35v-22.89c-7.521 5.945-14.047 12.867-19.454 20.54zm-4.468-20.015c-7.48 3.085-14.416 7.221-20.633 12.222 2.795 1.279 5.72 2.432 8.743 3.474 3.495-5.547 7.463-10.802 11.89-15.696zm-4.053 34.637c-5.118 10.84-8.281 22.68-9.239 35.047h37.215v-31.23c-9.748-.457-19.144-1.748-27.976-3.817zm-9.238 51.047c.958 12.367 4.121 24.207 9.239 35.047 8.832-2.069 18.228-3.36 27.975-3.817v-31.23zm17.759 49.666c5.407 7.674 11.933 14.597 19.454 20.541v-22.891c-6.606.349-13.14 1.138-19.454 2.35zm-16.358 4.32c-3.022 1.042-5.948 2.195-8.743 3.474 6.217 5.001 13.153 9.137 20.633 12.222-4.427-4.893-8.395-10.148-11.89-15.696zm32.585 81.595 11.139 15.184 11.265-15.354-11.176-36.771zm-15.759 51.847 16.976-23.14-7.031-9.583zm-10.317 41.112 37.216 26.155 37.216-26.155-37.215-50.727zm64.417-40.699-10.123-33.306-7.156 9.754zm56.498-187.841h-22.348c-.931 13.952-4.292 27.342-9.796 39.675 4.64 1.727 9.031 3.712 13.16 5.921 10.488-12.625 17.347-28.36 18.984-45.596zm-18.984-61.596c-4.129 2.209-8.52 4.194-13.16 5.921 5.504 12.334 8.865 25.724 9.796 39.676h22.348c-1.637-17.237-8.496-32.972-18.984-45.597zm-148.238 45.596h22.347c.931-13.952 4.291-27.342 9.795-39.676-4.64-1.727-9.031-3.712-13.159-5.92-10.488 12.625-17.346 28.36-18.983 45.596zm18.984 61.596c4.129-2.209 8.52-4.194 13.16-5.921-5.504-12.333-8.865-25.724-9.796-39.675h-22.347c1.636 17.236 8.495 32.971 18.983 45.596zm50.238 45.366c-2.366-.343-4.706-.769-7.016-1.274l-85.808 282.31h7.403zm.388 173.511-29.996-21.081-16.296 53.614zm74.342 32.691-16.375-53.875-30.142 21.183zm46.871 74.834-85.808-282.311c-2.31.506-4.649.932-7.015 1.274l85.421 281.037z" fill="url(#SVGID_1_)"></path></svg>