<!-- icon666.com - MILLIONS vector ICONS FREE --><svg id="Capa_1" enable-background="new 0 0 512.1 512.1" viewBox="0 0 512.1 512.1" xmlns="http://www.w3.org/2000/svg"><g><g><g><g><path d="m62.5 512c-26.6 0-48.2-21.6-48.2-48.2v-415.6c0-26.6 21.6-48.2 48.2-48.2h196.8c26.6 0 48.2 21.6 48.2 48.2v415.7c0 26.6-21.6 48.2-48.2 48.2h-196.8z" fill="#505278"></path><path d="m259.4 0h-98.4v512h98.4c26.5 0 48.1-21.6 48.1-48.2v-415.6c0-26.6-21.6-48.2-48.1-48.2z" fill="#424566"></path></g><g><path d="m287.7 463.8c0 15.7-12.7 28.3-28.3 28.3h-196.9c-15.7 0-28.3-12.7-28.3-28.3v-415.6c0-15.7 12.7-28.3 28.3-28.3h196.9c15.7 0 28.3 12.7 28.3 28.3z" fill="#e6eaff"></path><path d="m259.4 19.8h-98.2v472.4h98.2c15.6 0 28.3-12.7 28.3-28.3v-415.7c0-15.7-12.7-28.4-28.3-28.4z" fill="#cad4ff"></path></g><path d="m307.6 140-.1 59.7h.1c1.8 0 3.3-1.5 3.3-3.3v-53.1c0-1.8-1.5-3.3-3.3-3.3z" fill="#333756"></path><path d="m14.3 162.8v-32.9c-1.8 0-3.3 1.5-3.3 3.3v26.2c0 1.9 1.5 3.4 3.3 3.4zm0 36.9v-32.9c-1.8 0-3.3 1.5-3.3 3.3v26.2c0 1.9 1.5 3.4 3.3 3.4z" fill="#333756"></path><g><g fill="#505278"><path d="m208.4 476.5h-94.9c-3.5 0-6.3-2.8-6.3-6.3s2.8-6.3 6.3-6.3h94.9c3.5 0 6.3 2.8 6.3 6.3s-2.8 6.3-6.3 6.3z"></path><path d="m194.2 53.6h-66.5c-6.4 0-11.5-5.2-11.5-11.5 0-6.4 5.2-11.5 11.5-11.5h66.5c6.4 0 11.5 5.2 11.5 11.5 0 6.4-5.2 11.5-11.5 11.5z"></path></g><g><g fill="#424566"><path d="m208.4 463.8h-47.5v12.7h47.5c3.5 0 6.3-2.8 6.3-6.3s-2.8-6.4-6.3-6.4z"></path><path d="m202.3 50.2c2.1-2.1 3.4-5 3.4-8.2 0-6.4-5.2-11.5-11.5-11.5h-33.2v23.1h33.2c3.1 0 6-1.3 8.1-3.4z"></path></g></g></g></g><g><g><path d="m481.2 359.8h-354.2c-10.9 0-19.8-8.9-19.8-19.8v-167.9c0-10.9 8.9-19.8 19.8-19.8h354.3c10.9 0 19.8 8.9 19.8 19.8v167.9c-.1 10.9-8.9 19.8-19.9 19.8z" fill="#ccde3d"></path><path d="m481.2 152.2h-320.1v207.5h320.1c11 0 19.8-8.9 19.8-19.8v-167.8c0-11-8.8-19.9-19.8-19.9z" fill="#afc728"></path></g><g><path d="m435.6 190.6h-263c0 15.6-12.6 28.2-28.2 28.2v74.4c15.6 0 28.2 12.6 28.2 28.2h263c0-15.6 12.6-28.2 28.2-28.2v-74.4c-15.6 0-28.2-12.6-28.2-28.2z" fill="#e5ef59"></path><path d="m435.6 190.6h-263c0 9.3-4.5 17.6-11.5 22.7v85.4c7 5.1 11.5 13.4 11.5 22.7h263c0-15.6 12.6-28.2 28.2-28.2v-74.4c-15.6 0-28.2-12.6-28.2-28.2z" fill="#ccde3d"></path></g><g><circle cx="304.1" cy="256" fill="#ffc738" r="43.7"></circle><path d="m322.8 241.9c-1.1-1.1-2.9-1.1-4 0l-22.3 22.3-7.2-7.2c-1.1-1.1-2.9-1.1-4 0s-1.1 2.9 0 4l9.2 9.2c.6.6 1.3.8 2 .8s1.4-.3 2-.8l24.3-24.3c1.1-1.2 1.1-2.9 0-4z" fill="#af5a35"></path></g></g></g></g></svg>