<!-- icon666.com - MILLIONS vector ICONS FREE --><svg id="Layer_1" viewBox="0 0 512 512" xmlns="http://www.w3.org/2000/svg" xmlns:xlink="http://www.w3.org/1999/xlink" data-name="Layer 1"><linearGradient id="linear-gradient" gradientUnits="userSpaceOnUse" x1="438.147" x2="76.109" y1="76.109" y2="438.147"><stop offset="0" stop-color="#e93528"></stop><stop offset="1" stop-color="#f8bc16"></stop></linearGradient><path d="m512 210.935v90.13a16 16 0 0 1 -16 16h-46.839a201.593 201.593 0 0 1 -8.087 21.312 16 16 0 0 1 -29.226-13.032 169.231 169.231 0 0 0 9.679-28.132 16 16 0 0 1 15.53-12.148h42.943v-58.13h-42.943a16 16 0 0 1 -15.53-12.148 169.343 169.343 0 0 0 -19.354-46.672 16 16 0 0 1 2.39-19.573l30.381-30.382-41.105-41.1-30.381 30.381a16 16 0 0 1 -19.573 2.389 169.355 169.355 0 0 0 -46.673-19.356 16 16 0 0 1 -12.147-15.534v-42.94h-58.131v42.935a16 16 0 0 1 -12.146 15.528 169.348 169.348 0 0 0 -46.678 19.357 16 16 0 0 1 -19.574-2.389l-30.375-30.375-41.1 41.1 30.382 30.383a16 16 0 0 1 2.39 19.571 169.418 169.418 0 0 0 -19.356 46.674 16 16 0 0 1 -15.53 12.147h-42.947v58.13h42.942a16 16 0 0 1 15.53 12.147 169.382 169.382 0 0 0 19.354 46.673 16 16 0 0 1 -2.389 19.573l-30.381 30.385 41.1 41.105 30.381-30.38a16 16 0 0 1 19.572-2.39 169.388 169.388 0 0 0 46.674 19.357 16 16 0 0 1 12.147 15.529v42.94h58.131v-42.935a16 16 0 0 1 12.147-15.528 169.648 169.648 0 0 0 25.679-8.609 16 16 0 1 1 12.568 29.428c-6 2.562-12.152 4.841-18.394 6.814v46.83a16 16 0 0 1 -16 16h-90.127a16 16 0 0 1 -16-16v-46.833a201.185 201.185 0 0 1 -32.334-13.411l-33.129 33.129a16 16 0 0 1 -22.627 0l-63.729-63.732a16 16 0 0 1 0-22.627l33.129-33.126a201.245 201.245 0 0 1 -13.409-32.331h-46.835a16 16 0 0 1 -16-16v-90.13a16 16 0 0 1 16-16h46.836a201.241 201.241 0 0 1 13.409-32.339l-33.13-33.131a16 16 0 0 1 0-22.627l63.733-63.732a16 16 0 0 1 22.627 0l33.125 33.128a201.145 201.145 0 0 1 32.336-13.41v-46.828a16 16 0 0 1 16-16h90.131a16 16 0 0 1 16 16v46.833a201.227 201.227 0 0 1 32.333 13.41l33.129-33.129a16 16 0 0 1 22.627 0l63.733 63.733a16 16 0 0 1 0 22.627l-33.13 33.13a201.139 201.139 0 0 1 13.409 32.331h46.832a16 16 0 0 1 16 16zm-72.725 205.713a16 16 0 1 1 -22.627 22.627l-92.9-92.895a113.114 113.114 0 1 1 22.627-22.627zm-183.275-79.648a81 81 0 1 0 -81-81 81.093 81.093 0 0 0 81 81z" fill="url(#linear-gradient)"></path></svg>