<!-- icon666.com - MILLIONS vector ICONS FREE --><svg id="Layer_1" enable-background="new 0 0 512 512" viewBox="0 0 512 512" xmlns="http://www.w3.org/2000/svg"><g><path d="m328.033 484.823h-144.066c67.209-39.516 37.337-166.693 37.337-166.693h69.385c-.001 0-29.874 127.177 37.344 166.693z" fill="#ffc344"></path><g fill="#feb237"><path d="m290.688 318.13h-30.905s-29.873 127.177 37.346 166.693h30.905c-67.219-39.516-37.346-166.693-37.346-166.693z"></path><path d="m86.535 37.869c-47.79 0-86.535 38.735-86.535 86.536 0 47.79 38.745 86.535 86.535 86.535s86.535-38.745 86.535-86.535c0-47.801-38.745-86.536-86.535-86.536zm0 142.165c-30.679 0-55.63-24.961-55.63-55.63 0-30.679 24.951-55.63 55.63-55.63s55.63 24.951 55.63 55.63c0 30.669-24.951 55.63-55.63 55.63z"></path><path d="m425.465 37.869c-47.79 0-86.535 38.735-86.535 86.535 0 47.79 38.745 86.535 86.535 86.535s86.535-38.744 86.535-86.534c0-47.801-38.745-86.536-86.535-86.536zm0 142.165c-30.679 0-55.63-24.961-55.63-55.63 0-30.679 24.951-55.63 55.63-55.63s55.63 24.951 55.63 55.63c0 30.669-24.951 55.63-55.63 55.63z"></path></g><path d="m256 365.595c-90.184 0-161.829-75.801-156.749-165.842l10.935-193.814c.188-3.333 2.945-5.939 6.283-5.939h279.062c3.338 0 6.095 2.606 6.284 5.939l10.935 193.815c5.079 90.04-66.566 165.841-156.75 165.841z" fill="#ffd15b"></path><path d="m412.749 199.754-10.935-193.815c-.188-3.333-2.945-5.939-6.283-5.939h-30.905c3.338 0 6.095 2.606 6.283 5.939l10.935 193.815c4.786 84.831-58.535 157.012-141.296 165.081 5.082.495 10.235.76 15.452.76 90.184 0 161.829-75.801 156.749-165.841z" fill="#ffc344"></path><path d="m365.32 512h-218.64c-2.209 0-4-1.791-4-4v-4.905c0-12.15 9.85-22 22-22h182.64c12.15 0 22 9.85 22 22v4.905c0 2.209-1.791 4-4 4z" fill="#ffd15b"></path><path d="m346.656 481.095h-30.906c12.517 0 22.664 10.147 22.664 22.664v4.121c0 2.276-1.845 4.121-4.121 4.121h30.905c2.276 0 4.121-1.845 4.121-4.121v-4.121c.001-12.517-10.146-22.664-22.663-22.664z" fill="#ffc344"></path><g><path d="m332.851 227.861c-16.779 3.905-34.25-6.06-44.517-23.514-.944-1.604-2.681-2.58-4.548-2.58h-55.572c-1.867 0-3.605.976-4.548 2.58-10.267 17.454-27.738 27.419-44.517 23.514-21.981-5.109-34.444-32.081-27.838-60.242 5.326-22.706 26.124-51.995 104.689-51.995s99.276 28.912 104.689 51.995c6.606 28.161-5.857 55.133-27.838 60.242z" fill="#fff0ad"></path></g><g fill="#ffe177"><path d="m192.76 204.347c-5.487 9.329-13.033 16.515-21.43 20.591 2.443 1.292 5.056 2.281 7.819 2.923 16.779 3.905 34.25-6.06 44.517-23.514.944-1.604 2.681-2.58 4.548-2.58h-30.905c-1.868.001-3.605.976-4.549 2.58z"></path><path d="m360.689 167.619c-5.412-23.082-26.124-51.994-104.689-51.994-5.408 0-10.533.143-15.408.409 65.853 3.573 84.153 30.102 89.191 51.585 5.776 24.621-3.025 48.332-20.019 57.319 7.315 3.55 15.275 4.741 23.087 2.923 21.981-5.109 34.444-32.081 27.838-60.242z"></path></g></g></svg>