<!-- icon666.com - MILLIONS vector ICONS FREE --><svg id="Capa_1" enable-background="new 0 0 512 512" viewBox="0 0 512 512" xmlns="http://www.w3.org/2000/svg"><g><g><g><g><path d="m0 150.088v346.325c0 8.284 6.729 15 15.03 15h481.94c8.301 0 15.03-6.716 15.03-15v-346.325l-256-10z" fill="#fdf3f3"></path><path d="m256.003 140.089v371.325h240.967c8.301 0 15.03-6.716 15.03-15v-346.326z" fill="#eae4f0"></path></g><g><path d="m512 59.088c0-8.284-6.729-15-15.03-15h-481.94c-8.3 0-15.03 6.716-15.03 15v91h512z" fill="#fc8256"></path><path d="m496.97 44.088h-240.967v106h255.997v-91c0-8.284-6.729-15-15.03-15z" fill="#e62e6c"></path></g></g><g><g fill="#293565"><path d="m436 87.59c-8.284 0-15-6.716-15-15v-57.003c0-8.284 6.716-15 15-15s15 6.716 15 15v57.003c0 8.284-6.716 15-15 15z"></path><path d="m376 87.59c-8.284 0-15-6.716-15-15v-57.003c0-8.284 6.716-15 15-15s15 6.716 15 15v57.003c0 8.284-6.716 15-15 15z"></path><path d="m316 87.59c-8.284 0-15-6.716-15-15v-57.003c0-8.284 6.716-15 15-15s15 6.716 15 15v57.003c0 8.284-6.716 15-15 15z"></path></g><path d="m196 87.59c-8.284 0-15-6.716-15-15v-57.003c0-8.284 6.716-15 15-15s15 6.716 15 15v57.003c0 8.284-6.716 15-15 15z" fill="#414c7f"></path><path d="m136 87.59c-8.284 0-15-6.716-15-15v-57.003c0-8.284 6.716-15 15-15s15 6.716 15 15v57.003c0 8.284-6.716 15-15 15z" fill="#414c7f"></path><path d="m76 87.59c-8.284 0-15-6.716-15-15v-57.003c0-8.284 6.716-15 15-15s15 6.716 15 15v57.003c0 8.284-6.716 15-15 15z" fill="#414c7f"></path><g><path d="m256 87.59c-8.284 0-15-6.716-15-15v-57.003c0-8.284 6.716-15 15-15s15 6.716 15 15v57.003c0 8.284-6.716 15-15 15z" fill="#414c7f"></path><path d="m256.003.587v87.003c8.283-.002 14.997-6.717 14.997-15v-57.003c0-8.283-6.714-14.998-14.997-15z" fill="#293565"></path></g></g></g><g><g fill="#293565"><path d="m448.633 380.666c-6.903 0-12.5 5.597-12.5 12.5v45.747c0 1.598 0 4.272-5.665 7.125-1.576.794-3.321 1.18-5.334 1.18-.007 0-.014 0-.021 0-2.117-.003-3.934-.507-5.554-1.542-4.671-2.984-4.671-4.966-4.671-6.715v-45.795c0-6.903-5.597-12.5-12.5-12.5s-12.5 5.597-12.5 12.5v45.795c0 11.562 5.454 20.91 16.211 27.782 5.671 3.623 12.057 5.466 18.98 5.475h.055c5.926 0 11.503-1.296 16.578-3.851 12.523-6.307 19.421-16.767 19.421-29.454v-45.747c0-6.903-5.597-12.5-12.5-12.5z"></path><path d="m345.774 400.708c-10.318-3.806-20.014-7.909-24.531-9.862-2.429-1.05-3.972-3.534-3.699-6.167.01-.096.021-.184.033-.264.23-1.603 1.401-5.522 7.299-7.299 13.408-4.039 25.923 5.967 25.923 5.967h.002c5.274 4.413 13.126 3.739 17.57-1.521 4.454-5.275 3.788-13.161-1.486-17.615-.914-.77-22.718-18.751-49.22-10.768-13.448 4.051-22.965 14.659-24.834 27.684-1.756 12.233 3.547 24 13.839 30.711.553.36 1.133.676 1.734.944.557.249 13.803 6.144 28.718 11.646 3.196 1.179 13.529 5.567 12.285 12.535-.924 5.171-7.273 10.521-16.302 10.521-9.413 0-18.467-3.789-24.219-10.136-4.636-5.115-12.539-5.504-17.657-.868-5.115 4.636-5.504 12.541-.868 17.656 10.567 11.661 26.147 18.348 42.744 18.348 20.486 0 37.692-13.09 40.912-31.126 2.427-13.593-3.717-31.34-28.243-40.386z"></path></g><g fill="#414c7f"><path d="m214.376 307.219c6.903 0 12.5-5.597 12.5-12.5v-67.674c0-6.903-5.597-12.5-12.5-12.5-5.345 0-9.894 3.361-11.681 8.08-5.514-2.631-11.679-4.109-18.185-4.109-23.36 0-42.366 19.005-42.366 42.366s19.006 42.366 42.366 42.366c6.505 0 12.671-1.478 18.185-4.109 1.787 4.718 6.336 8.08 11.681 8.08zm-29.865-28.972c-9.576 0-17.366-7.79-17.366-17.366s7.79-17.366 17.366-17.366c9.575 0 17.365 7.79 17.365 17.366s-7.79 17.366-17.365 17.366z"></path><path d="m98.774 235.708c-10.318-3.806-20.014-7.909-24.531-9.862-2.429-1.05-3.972-3.534-3.699-6.167.01-.096.021-.184.033-.264.23-1.603 1.401-5.523 7.299-7.299 13.408-4.039 25.923 5.967 25.923 5.967l.002-.001c5.274 4.413 13.126 3.739 17.57-1.521 4.454-5.275 3.788-13.161-1.486-17.615-.914-.77-22.718-18.751-49.22-10.768-13.448 4.051-22.965 14.659-24.834 27.684-1.756 12.233 3.547 24 13.839 30.71.553.36 1.133.676 1.734.944.557.249 13.803 6.144 28.718 11.646 3.196 1.179 13.529 5.567 12.285 12.535-.924 5.171-7.273 10.521-16.302 10.521-9.413 0-18.467-3.789-24.219-10.136-4.636-5.115-12.539-5.504-17.657-.868-5.115 4.636-5.504 12.541-.868 17.656 10.567 11.661 26.147 18.348 42.744 18.348 20.486 0 37.692-13.09 40.912-31.126 2.427-13.591-3.717-31.338-28.243-40.384z"></path></g><g><path d="m287.695 253.023c-6.416-2.55-13.683.581-16.235 6.996l-54.15 136.148c-2.551 6.415.581 13.683 6.995 16.235 1.516.603 3.079.888 4.616.888 4.97 0 9.67-2.984 11.619-7.884l54.15-136.148c2.551-6.415-.581-13.683-6.995-16.235z" fill="#85eafd"></path><path d="m287.695 253.023c-6.416-2.55-13.683.581-16.235 6.996l-15.475 38.908v67.647l38.706-97.316c2.55-6.415-.582-13.683-6.996-16.235z" fill="#54c4fc"></path></g></g></g></svg>