<!-- icon666.com - MILLIONS vector ICONS FREE --><svg id="Capa_1" enable-background="new 0 0 512 512" viewBox="0 0 512 512" xmlns="http://www.w3.org/2000/svg"><g><g><g><path d="m492.974 91.47h-474.945c-5.523 0-10-4.477-10-10v-71.47c0-5.523 4.477-10 10-10h474.945c5.523 0 10 4.477 10 10v71.47c0 5.523-4.477 10-10 10z" fill="#786e79"></path></g><g><path d="m493 0h-17.659v50.546c0 7.341-5.951 13.292-13.292 13.292h-454.02v17.659c0 5.508 4.465 9.973 9.973 9.973h474.998c5.508 0 9.973-4.465 9.973-9.973v-71.524c.001-5.508-4.465-9.973-9.973-9.973z" fill="#453e43"></path></g><g><path d="m434.405 215.708h-357.808c-5.523 0-10-4.477-10-10v-163.269c0-5.523 4.477-10 10-10h357.808c5.523 0 10 4.477 10 10v163.269c0 5.523-4.477 10-10 10z" fill="#fba615"></path></g><g><path d="m66.597 42.413v50.308c33.293 0 60.281-26.989 60.281-60.282h-50.307c-5.508 0-9.974 4.466-9.974 9.974z" fill="#f88604"></path></g><g><path d="m76.571 215.708h50.147c.095-1.384.161-2.776.161-4.184 0-33.292-26.989-60.282-60.281-60.282v54.492c-.001 5.509 4.465 9.974 9.973 9.974z" fill="#f88604"></path></g><g><path d="m434.432 32.439h-14.748v148.574c0 5.508-4.465 9.973-9.973 9.973h-343.114v14.748c0 5.508 4.465 9.973 9.973 9.973h357.861c5.508 0 9.973-4.465 9.973-9.973v-163.321c.001-5.508-4.464-9.974-9.972-9.974z" fill="#f88604"></path></g><g><path d="m434.432 32.439h-50.308c0 33.293 26.989 60.282 60.281 60.282v-50.308c0-5.508-4.465-9.974-9.973-9.974z" fill="#f88604"></path></g><g><path d="m66.597 190.987v14.748c0 5.508 4.465 9.973 9.973 9.973h50.147c.095-1.384.161-2.776.161-4.184 0-7.212-1.271-14.127-3.594-20.537z" fill="#f16600"></path></g><g><path d="m434.432 32.439h-14.748v54.976c7.546 3.399 15.908 5.305 24.721 5.305v-50.307c0-5.508-4.465-9.974-9.973-9.974z" fill="#f16600"></path></g><g><circle cx="255.501" cy="124.074" fill="#f88604" r="70.423"></circle></g><g><path d="m255.501 201.977c-42.956 0-77.903-34.947-77.903-77.903s34.947-77.903 77.903-77.903 77.903 34.947 77.903 77.903-34.947 77.903-77.903 77.903zm0-140.846c-34.707 0-62.943 28.236-62.943 62.943s28.236 62.943 62.943 62.943 62.943-28.236 62.943-62.943-28.236-62.943-62.943-62.943z" fill="#ffeccf"></path></g><path d="m274.961 119.858c1.709-2.896 2.708-6.26 2.708-9.859 0-10.741-8.739-19.48-19.48-19.48h-15.148c-4.132 0-7.48 3.349-7.48 7.48v52.149c0 1.99.793 3.897 2.202 5.301 1.403 1.396 3.3 2.179 5.278 2.179h.033c.002 0 13.924-.062 17.76-.062 11.865 0 21.517-9.653 21.517-21.518.001-6.456-2.872-12.243-7.39-16.19zm-16.772-14.379c2.492 0 4.519 2.027 4.519 4.52 0 2.492-2.027 4.519-4.519 4.519-1.121 0-7.668.014-7.668.014v-9.053zm2.646 37.127c-1.919 0-6.349.016-10.313.031v-13.137l10.313-.008c3.615 0 6.557 2.941 6.557 6.557-.001 3.616-2.942 6.557-6.557 6.557z" fill="#ffeccf"></path></g><g><g><g><path d="m503.97 309.049c-.028-83.316-.707-126.415-17.327-126.415-12.987 0-16.24 27.193-17.055 78.496-.021 1.34-1.262 2.331-2.571 2.046l-.042-.009c-.946-.205-1.624-1.044-1.637-2.012-1.538-121.08-8.475-149.586-23.196-149.586-14.606 0-21.548 30.279-23.158 148.43-.016 1.151-.953 2.083-2.104 2.083h-1.214c-1.156 0-2.096-.939-2.104-2.096-1.005-138.666-7.871-170.393-23.401-170.393-15.472 0-22.345 33.975-23.389 170.394-.009 1.156-.948 2.095-2.104 2.095h-2.667c-.093 0-.184.006-.277.007-1.512-121.934-8.446-150.6-23.208-150.6-16.433 0-23.166 38.33-23.517 197.022-.002.197-.015.391-.015.588v41.014c0 2.838.16 5.638.454 8.397-1.459-2.575-2.944-5.148-4.451-7.71-24.768-42.089-61.478-73.203-74.407-65.595-1.824 1.073-3.076 2.86-3.813 5.255-1.355 4.404-.473 9.189 2.056 13.041 2.045 3.115 4.036 6.309 5.955 9.569 12.522 21.28 17.65 36.127 17.991 46.593.206 6.32 1.79 12.526 4.986 17.983.138.235.276.471.415.706 20.639 35.073 51.838 63.762 69.148 67.952v52.248c0 7.427 6.021 13.448 13.448 13.448h125.426c7.427 0 13.448-6.021 13.448-13.448v-74.366c0-13.262 3.422-26.243 9.543-38.008 5.615-10.792 8.789-23.057 8.789-36.064v-41.014c-.001-.017-.002-.034-.002-.051z" fill="#b95e4b"></path></g></g><g><g><g><path d="m503.97 309.049c-.028-83.316-.707-126.415-17.327-126.415-2.331 0-4.344.891-6.091 2.626 3.706 20.484 3.954 55.831 3.971 105.439 0 .017.001.034.001.051v41.014c0 13.176-3.258 25.591-9.009 36.485-6.117 11.586-9.323 24.486-9.323 37.587v17.656c0 38.747-31.411 70.158-70.158 70.158h-62.718v4.902c0 7.427 6.021 13.448 13.448 13.448h125.426c7.427 0 13.448-6.021 13.448-13.448v-74.366c0-13.102 3.205-26.001 9.323-37.588 5.752-10.894 9.009-23.308 9.009-36.485.001 0 0-41.047 0-41.064z" fill="#a24e3d"></path></g></g></g><g><g><path d="" style="fill:none;stroke:#c8c1c9;stroke-width:15;stroke-linecap:round;stroke-linejoin:round;stroke-miterlimit:10"></path></g></g></g></g></svg>